<?xml version="1.0" standalone="no"?>
<!DOCTYPE svg PUBLIC "-//W3C//DTD SVG 1.1//EN" "http://www.w3.org/Graphics/SVG/1.1/DTD/svg11.dtd" >
<svg xmlns="http://www.w3.org/2000/svg" xmlns:xlink="http://www.w3.org/1999/xlink" version="1.1">
<metadata>
Created by FontForge 20150824 at Fri Feb 19 23:08:49 2016
 By Everything Fonts
========================================
 Copyright (c) Boutros International, 2005. All rights reserved.
      Convert And Modified By Mojtaba Kia  (c) 2007 - 2008
========================================
</metadata>
<defs>
<font id="Mj_EastExtra-Bold" horiz-adv-x="0" >
  <font-face 
    font-family="Mj_East Extra Bold"
    font-weight="800"
    font-stretch="normal"
    units-per-em="2048"
    panose-1="2 10 5 3 2 1 2 2 2 4"
    ascent="1638"
    descent="-410"
    bbox="-183 -779 2342 2355"
    underline-thickness="100"
    underline-position="-770"
    unicode-range="U+0020-FEFC"
  />
<missing-glyph horiz-adv-x="1024" 
d="M128 0v1278h768v-1278h-768zM256 128h512v1022h-512v-1022z" />
    <glyph glyph-name=".notdef" unicode="&#x652;&#x64d;" horiz-adv-x="1024" 
d="M128 0v1278h768v-1278h-768zM256 128h512v1022h-512v-1022z" />
    <glyph glyph-name="uniFC60" unicode="&#x651;&#x64e;" horiz-adv-x="7" arabic-form="isolated" 
d="M475 1796q0 -53 -29 -90q-30 -39 -82 -39q-84 0 -128 62q-48 -114 -150 -114q-112 0 -112 128q0 57 50 161l69 -36q-29 -75 -29 -89q0 -55 38 -55q55 0 72 57q10 33 7 104q27 15 89 47q0 -156 72 -156q38 0 35 47q-1 27 -15 49q-7 11 -26 40l71 52q29 -38 50 -96
q18 -48 18 -72zM427 2033l-439 -109l-25 90l442 112z" />
    <glyph glyph-name="uniFC61" unicode="&#x651;&#x64f;" horiz-adv-x="1" arabic-form="isolated" 
d="M470 1776q0 -55 -29 -91q-32 -40 -84 -40q-85 0 -131 64q-49 -117 -153 -117q-114 0 -114 130q0 58 50 165l72 -36q-30 -78 -30 -92q0 -56 38 -56q58 0 75 59q9 31 7 105q27 15 90 48q0 -159 73 -159q40 0 37 48q-2 29 -42 91l72 53q31 -41 52 -98q17 -48 17 -74z
M377 2181q0 49 -72 49q-26 0 -47 -16q-23 -17 -23 -42q0 -27 23 -45t49 -16q70 5 70 70zM172 2089q-26 40 -26 85q0 63 55 110q49 41 98 41q63 0 113 -40q53 -43 53 -104q0 -129 -155 -165l-319 -75l-22 87q77 21 203 61z" />
    <glyph glyph-name="uniE818" unicode="&#x651;&#x64b;" 
d="M465 1798q0 -55 -29 -91q-32 -40 -84 -40q-86 0 -131 64q-49 -117 -153 -117q-114 0 -114 130q0 58 50 165l72 -36q-30 -78 -30 -92q0 -56 38 -56q56 0 74 59q10 33 7 105q28 15 91 48q0 -159 73 -159q39 0 36 48q-1 26 -41 91l72 53q29 -39 51 -98q18 -49 18 -74z
M438 2246l-448 -111l-25 92l451 114zM444 2077l-448 -111l-25 92l450 114z" />
    <glyph glyph-name="uniFC5E" unicode="&#x651;&#x64c;" horiz-adv-x="1" arabic-form="isolated" 
d="M459 1760q0 -53 -29 -90q-30 -39 -82 -39q-84 0 -128 62q-48 -114 -150 -114q-112 0 -112 128q0 57 50 161l69 -36q-29 -75 -29 -89q0 -55 38 -55q55 0 72 57q10 33 7 104q27 15 89 47q0 -156 72 -156q38 0 35 47q-1 27 -15 49q-7 11 -26 40l71 52q29 -38 50 -96
q18 -48 18 -72zM474 2213q0 -125 -152 -161l-322 -76l-30 82l30 14q49 22 49 67q0 27 -20 27q-17 0 -45 -21l-36 52q43 58 93 57q82 -2 82 -83q0 -45 -25 -84l87 33q-24 41 -24 90q0 62 54 106q48 39 95 39q62 0 111 -40q53 -42 53 -102zM386 2213q0 49 -70 49
q-24 0 -45 -15.5t-21 -39.5q0 -25 21 -44.5t47 -17.5q68 5 68 68z" />
    <glyph glyph-name="uniFC62" unicode="&#x651;&#x650;" arabic-form="isolated" 
d="M440 1789l-448 -111l-24 92l450 115zM457 2054q0 -54 -29 -91q-32 -40 -84 -40q-85 0 -131 64q-49 -116 -153 -116q-114 0 -114 130q0 57 50 164l72 -36q-30 -77 -30 -92q0 -55 38 -55q58 0 75 59q9 31 7 104q27 16 90 48q0 -159 73 -159q40 0 37 48q-2 30 -42 91l72 54
q69 -93 69 -173z" />
    <glyph glyph-name="uniFC5F" unicode="&#x651;&#x64d;" horiz-adv-x="1" arabic-form="isolated" 
d="M430 1893l-448 -111l-24 92l450 115zM447 2158q0 -54 -29 -91q-32 -40 -84 -40q-85 0 -131 64q-49 -116 -153 -116q-114 0 -114 130q0 57 50 164l72 -36q-30 -77 -30 -92q0 -55 38 -55q58 0 75 59q9 31 7 104q27 16 90 48q0 -159 73 -159q40 0 37 48q-2 30 -42 91l72 54
q69 -93 69 -173zM446 1709l-448 -111l-24 92l450 115z" />
    <glyph glyph-name="uniFEF5" unicode="&#xfedf;&#xfe82;" horiz-adv-x="1150" arabic-form="isolated" 
d="M143 213h112v1008h299v-1008h80q105 0 105 113v993h319v-969q0 -350 -367 -350h-548v213zM632 1458q-29 -77 -129 -86h-14q-41 0 -106 32q-64 32 -99 32h-10q-71 -6 -105 -80l-51 94q42 83 131 94h10q43 0 106 -32q64 -31 97 -31h12q77 8 109 75z" />
    <glyph glyph-name="uniFEF6" unicode="&#xfee0;&#xfe82;" horiz-adv-x="1316" arabic-form="final" 
d="M1058 1321h-319v-995q0 -113 -105 -113h-80v1008h-299v-1008h-112v-213h548q116 0 199 43q83 -43 256 -43h178v213h-170q-96 0 -96 88v1020zM632 1458q-29 -77 -129 -86h-14q-41 0 -106 32q-64 32 -99 32h-10q-71 -6 -105 -80l-51 94q42 83 131 94h10q43 0 106 -32
q64 -31 97 -31h12q77 8 109 75z" />
    <glyph glyph-name="uniFEF7" unicode="&#xfedf;&#xfe84;" horiz-adv-x="1150" arabic-form="isolated" 
d="M143 213h113v1008h299v-1008h80q104 0 104 113v993h319v-969q0 -350 -366 -350h-549v213zM219 1411h114q-30 25 -30 86q0 73 49 117q46 41 108 41q67 0 89 -25l-23 -55q-17 10 -35 10q-72 0 -72 -88q0 -86 72 -86h20q11 1 23 2l33 -74h-318z" />
    <glyph glyph-name="uniFEF8" unicode="&#xfee0;&#xfe84;" horiz-adv-x="1316" arabic-form="final" 
d="M1058 301q0 -88 97 -88h170v-213h-178q-173 0 -256 43q-83 -43 -199 -43h-549v213h113v1008h299v-1008h80q104 0 104 113v995h319v-1020zM219 1411h114q-30 25 -30 86q0 73 49 117q46 41 108 41q67 0 89 -25l-23 -55q-17 10 -35 10q-72 0 -72 -88q0 -86 72 -86h20
q11 1 23 2l33 -74h-318z" />
    <glyph glyph-name="uniFEF9" unicode="&#xfedf;&#xfe88;" horiz-adv-x="1150" arabic-form="isolated" 
d="M143 213h113v1008h299v-1008h80q104 0 104 113v993h319v-969q0 -350 -366 -350h-549v213zM190 -366h115q-33 22 -33 86q0 72 51 116q45 40 109 40q63 0 88 -25l-25 -55q-10 10 -33 10q-71 0 -71 -86t71 -86l41 2l35 -74h-317z" />
    <glyph glyph-name="uniFEFA" unicode="&#xfee0;&#xfe88;" horiz-adv-x="1316" arabic-form="final" 
d="M1058 1321h-319v-995q0 -113 -104 -113h-80v1008h-299v-1008h-113v-213h549q116 0 199 43q83 -43 256 -43h178v213h-170q-97 0 -97 88v1020zM190 -366h115q-33 22 -33 86q0 72 51 116q45 40 109 40q63 0 88 -25l-25 -55q-10 10 -33 10q-71 0 -71 -86t71 -86l41 2l35 -74
h-317z" />
    <glyph glyph-name="uniFEFB" unicode="&#xfedf;&#xfe8e;" horiz-adv-x="1150" arabic-form="isolated" 
d="M143 213h113v1008h299v-1008h80q104 0 104 113v993h319v-969q0 -350 -366 -350h-549v213z" />
    <glyph glyph-name="uniFEFC" unicode="&#xfee0;&#xfe8e;" horiz-adv-x="1316" arabic-form="final" 
d="M1058 1321h-319v-995q0 -113 -104 -113h-80v1008h-299v-1008h-113v-213h549q116 0 199 43q83 -43 256 -43h178v213h-170q-97 0 -97 88v1020z" />
    <glyph glyph-name="uniFDF2" unicode="&#xfedf;&#xfee0;&#xfeea;" horiz-adv-x="2441" arabic-form="isolated" 
d="M499 0q-167 0 -273 114q-110 119 -110 316q0 496 492 496q235 0 348 -70v-643h295q49 0 79 25v1081h320v-1010q0 -96 111 -96h167q95 0 95 88v1018h319v-995q0 -324 -405 -324h-172q-106 0 -184 25q-63 19 -107 55q-50 -35 -114 -55q-84 -25 -191 -25h-670zM646 733
q-21 8 -59 8q-154 0 -154 -288q0 -140 40 -193q35 -47 120 -47h55zM1277 1526q0 -50 46 -71q17 -8 41 -12q9 -1 20 -2q8 -1 18 -1q55 3 78 22q30 -22 94 -22q101 0 101 86v129h-97v-129q0 -29 -30 -29q-16 0 -27 8v150h-92v-129q0 -29 -33 -29q-17 0 -23 8v150h-96v-129z
" />
    <glyph glyph-name="uniFD3E" unicode="&#x652;&#x64e;" horiz-adv-x="1135" 
d="M1075 -612q0 -15 -24 -15q-76 0 -229 151q-201 196 -314 499q-209 3 -209 55q137 144 137 223q-62 0 -133.5 -73.5t-81.5 -73.5q-38 0 -55 163q-111 54 -111 95q0 46 105 108q11 156 49 156q153 -144 227 -144q-7 77 -78 146t-71 78q0 16 61 35q69 21 154 24
q72 217 195 388q95 133 204 219q87 69 123 69q20 0 20 -23q0 -10 -73 -91q-90 -101 -147 -208q-89 -164 -119 -364q100 -16 100 -45q-141 -142 -141 -221q72 0 215 147q18 0 37 -53t22 -111q106 -55 106 -100q0 -37 -100 -96q-8 -160 -55 -160l-68 65q-69 68 -153 76
q0 -71 73.5 -143t73.5 -84q0 -23 -108 -45q32 -163 130.5 -336.5t217.5 -276.5q20 -17 20 -34zM680 418q0 53 -38 91t-91 38q-54 0 -91.5 -38t-37.5 -91q0 -52 37.5 -88.5t91.5 -36.5q53 0 91 36.5t38 88.5z" />
    <glyph glyph-name="copyright" unicode="&#x652;&#x64b;" horiz-adv-x="1816" 
d="M738 1886h1l2 -2v-209h1q96 68 234 68q176 0 345 -106q43 -27 97 -73q54 -52 70 -72q18 -20 18 -22l-1 -1q-1 0 -75 74q-59 53 -97 76q-47 31 -97 53q-127 56 -253 56q-148 0 -242 -75v-109l1 -420q33 -45 85 -104q83 -89 165 -164l126 -117v0q16 4 30 4q34 0 88 -29
q29 -13 44 -13q16 0 23 14v6q0 37 -149 177q-98 93 -158 147q-49 43 -130 124q-63 67 -76 91q-23 35 -23 63q0 43 48 58q9 2 17 2q22 0 65 -22q22 -10 38 -10h4q26 0 70 40l81 74q8 2 55 7v0q3 0 4 -2q-1 -3 -24 -23l-107 -100q-37 -41 -37 -60q0 -3 3 -4h2q21 2 57 30
q20 16 117 107q49 8 56 8q3 -1 3 -2v-2q-3 -4 -126 -116q-58 -54 -58 -86v-1h1q12 5 36 8q56 32 75 90q4 14 7 14q8 7 38 15l5 1h1q3 0 3 -3q-14 -36 -14 -65v-8l2 -20v0q38 6 60 25q1 0 35 34q51 41 112 41q71 0 131 -59v0h-1q-38 33 -68 43q-27 9 -53 9h-1q-57 0 -98 -40
q-23 -26 -23 -61q0 -26 13 -52l2 -1q9 6 9 16q0 8 -14 15q-8 7 -8 23q0 13 4 13q34 13 41 13h1q7 0 7 -16q0 -65 -69 -100q-6 -2 -9 -2q-14 0 -20 55v9q0 24 9 46h-1q-10 -7 -31 -14q-20 -4 -27 -4v-1q9 -56 60 -128q26 -38 123 -144q90 -95 95 -102v-1q0 -6 -36 -6h-1
q-17 0 -31 19l-166 178q-47 52 -104 109q-39 38 -80 38q-14 0 -50 -9l-4 -1h-4q-7 0 -9 10v2q2 25 25 59l1 1v1q-30 -4 -51 -9q-12 -4 -19 -4q-9 0 -10 11v0q0 20 23 58l5 6v0q-18 -3 -34 -3q-42 0 -79 29q-12 7 -19 7q-13 0 -19 -17l-1 -8q0 -53 145 -190q43 -40 193 -178
q55 -50 118 -113q86 -87 86 -130q0 -26 -28 -38q-9 -3 -21 -3q-30 0 -89 33q-39 18 -64 18h-3q-6 0 -22 -3v0q57 -58 74 -83q62 -78 62 -149q0 -58 -40 -86q-18 -9 -35 -9q-37 0 -63 34q-3 5 -5 9v0q0 -9 -13 -47q-32 -82 -101 -119q-50 -27 -111 -27q-98 0 -159 76
q-22 32 -26 79q0 2 1 2q-3 16 -5 43h-1v639q0 1 -19 30q-82 133 -82 255q0 138 90 243l11 12v186q0 10 7 17q26 38 31 43zM1766 -368v-256l-1 -1h-50l-1 1v173h-103v-174h-1h-50v0v257v1h205zM1714 -393h-103v-32h103v32zM624 1408q0 -93 54 -183q10 -21 20 -35v421
q-74 -90 -74 -203zM1347 1594l1 -2v-2q-3 -10 -3 -22l1 -35q0 -33 -24 -33l-46 6q-4 0 -4 -7v-40q0 -21 -19 -28q-4 -2 -12 -2q-16 0 -16 4v3q3 11 3 17v0l-1 31q0 33 36 33l30 -1q7 1 7 7v41q0 18 16 26q18 4 31 4zM1536 -578v-47l-1 -1h-15v1v39h-20v-39l-1 -1h-15l-1 1
v39h-19v-39l-1 -1h-15v1v47v1h87zM1533 -368v-56v-1h-37l-1 -1v-25h38v0v-98v-1h-205l-1 1v181l1 1h205v-1zM1469 -393h-90v-32h90v32zM1469 -451h-90v-73h90v73zM1440 -577v-47l-1 -1h-63l-1 1v47h1h63h1zM1423 -585h-31v-32h31v32zM1365 -578v-6l-1 -1h-47v-32h47l1 -1v-6
l-1 -1h-63l-1 1v46l1 1h63zM1141 1283q-25 -37 -61 -55v-1h5q35 0 70 -27v0v1q-15 28 -15 64l2 18v0h-1zM1300 -368v-181v-1h-50l-1 1v98h-103v-98l-1 -1h-50l-1 1v181l1 1h205v-1zM1288 -618v-7l-1 -1h-11l-1 1v7h1h11h1zM1260 -618v-7v-1h-45v1v47v1h15l1 -1v-40h29v0z
M1249 -393h-103v-32h103v32zM1073 1194q4 0 4 -4q-4 -7 -4 -11v-4q0 -6 6 -46v-7q0 -18 -16 -24q-21 -5 -28 -5q-4 0 -5 3v1l2 9v1l-7 45v10q0 25 47 32h1zM1207 -578v-47l-1 -1h-15l-1 1v47l1 1h15zM1182 -578v-47v-1h-15l-1 1v21h-32v-21v-1h-15l-1 1v47l1 1h63v-1z
M1189 1074q4 0 4 -4q-3 -8 -3 -12v-1q0 -9 5 -46v-9q0 -23 -28 -27l-16 -1q-5 0 -5 3l2 8v4l-6 37q-1 6 -1 14v0q0 21 25 29q16 5 23 5zM1166 -586h-32v-9h32v9zM742 1041v-488v-83q0 -11 9 -51q9 -31 19 -45q27 -48 94 -72q31 -9 59 -9q80 0 137 66q18 24 28 48
q14 37 14 46l3 18q-7 21 -18 92q-10 43 -20 67q-2 4 -2 8v3q0 12 22 36q2 2 3 2h1q7 0 23 -46q6 -15 13 -58q6 -61 12 -74q14 -38 52 -38q22 0 36 11q8 8 8 22q0 59 -158 206q-19 18 -112 105q-47 43 -130 127q0 1 -25 27q-39 43 -68 80zM1107 -578v-47l-1 -1h-14l-1 1v39
h-20v-39l-1 -1h-15v1v39h-20v-39l-1 -1h-14l-1 1v47l1 1h86zM1041 -368v-24v-1h-77v-156l-1 -1h-50l-1 1v156h-76l-1 1v24l1 1h205v-1zM1011 -578v-7l-1 -1h-47v-32h32v14h-20v1v7v1h35l1 -1v-29l-1 -1h-63v1v47v1h63zM928 -563v-45v0h-50h-1v29l1 1h34v-1v-21h8v29h-50v-45
h58v-1v-7v-1h-66v1v61v1h66v-1zM904 -586h-18v-14h18v14zM849 -578v-7v-1h-48v-9h48v-1v-29v-1h-63l-1 1v47l1 1h63v-1zM809 -368v-181l-1 -1h-205l-1 1v24l1 1h154v131h-102l-1 1v24l1 1h153zM829 -604h-28v-14h28v14zM777 -578v-47l-1 -1h-62l-1 1v47l1 1h62zM761 -586
h-32v-9h32v9zM761 -604h-32v-14h32v14zM688 -603l16 -23h-19l-13 17l-15 -17h-16l16 24l-16 25h18l13 -18l15 18h19zM634 -578v-47l-1 -1h-15v1v47v1h15zM607 -577v-47l-1 -1h-63v1v7v0h47v32h-31l-1 1v7h1h47h1zM576 -368v-181l-1 -1h-205v1v181v1h205zM524 -393h-102v-131
h102v131zM533 -578v-47v0h-63h-1v47l1 1h63v-1zM517 -585h-31v-32h31v32zM458 -578v-47h-1h-15v0v40h-20v-40h-1h-15v0v40h-20v-40h-1h-14h-1v47l1 1h86zM895 177q7 0 16 -21q1 -6 60 -60q62 -49 68 -78l2 -13q0 -28 -38 -57l-67 -55q-4 -5 -4 -9q0 -9 26 -30q57 -50 68 -63
q16 -22 16 -47q0 -38 -50 -75l-5 -2q-10 0 -22 26q-19 24 -40 39q-54 40 -61 64q-5 11 -5 24v3q0 39 65 96q26 25 26 32v2q0 9 -29 33l-60 55q-20 23 -20 48q0 24 25 54q19 27 27 33zM333 -368v-256v-1h-50l-1 1v231h-65v-232h-51l-1 1v231h-63v-231l-1 -1h-50h-1v257l1 1
h282v-1z" />
    <glyph glyph-name="uni0622" unicode="&#x622;" horiz-adv-x="573" arabic-form="isolated" 
d="M163 0v1319h317v-1319h-317zM564 1476q-29 -77 -129 -86h-14q-41 0 -106 31q-64 32 -99 32h-10q-71 -5 -105 -80l-51 94q42 84 131 95h10q43 0 106 -32q64 -32 97 -32h12q77 8 109 76z" />
    <glyph glyph-name="uniFE82" unicode="&#x622;" horiz-adv-x="690" arabic-form="final" 
d="M697 213h-120q-97 0 -97 88v1018h-317v-995q0 -324 405 -324h129v213zM564 1476q-29 -77 -129 -86h-14q-41 0 -106 31q-64 32 -99 32h-10q-71 -5 -105 -80l-51 94q42 84 131 95h10q43 0 106 -32q64 -32 97 -32h12q77 8 109 76z" />
    <glyph glyph-name="uni0623" unicode="&#x623;" horiz-adv-x="573" arabic-form="isolated" 
d="M163 0v1319h318v-1319h-318zM145 1487h115q-31 25 -31 86q0 73 50 117q45 41 108 41q67 0 88 -25l-23 -55q-17 10 -35 10q-71 0 -71 -88q0 -86 71 -86h20q11 1 23 2l33 -74h-317z" />
    <glyph glyph-name="uniFE84" unicode="&#x623;" horiz-adv-x="690" arabic-form="final" 
d="M698 213h-121q-96 0 -96 88v1018h-318v-995q0 -324 406 -324h129v213zM145 1487h115q-31 25 -31 86q0 73 50 117q45 41 108 41q67 0 88 -25l-23 -55q-17 10 -35 10q-71 0 -71 -88q0 -86 71 -86h20q11 1 23 2l33 -74h-317z" />
    <glyph glyph-name="uni0624" unicode="&#x624;" horiz-adv-x="1044" arabic-form="isolated" 
d="M956 2q0 -200 -140 -299q-119 -85 -319 -85q-192 0 -328 73l78 205q99 -53 225 -53q69 0 120 35q54 39 54 100v45q-45 -23 -147 -23q-167 0 -273 112q-110 117 -110 314q0 496 492 496q233 0 348 -68v-852zM646 729q-27 10 -59 10q-154 0 -154 -290q0 -269 150 -269
q33 0 63 10v539zM349 1153h152q-45 39 -45 113q0 95 69 153q62 51 148 51q81 0 117 -28l-31 -74q-17 14 -49 14q-94 0 -94 -114q0 -115 94 -115q35 0 59 2l43 -96h-422z" />
    <glyph glyph-name="uniFE86" unicode="&#x624;" horiz-adv-x="1187" arabic-form="final" 
d="M646 213l-21 -1q-11 0 -21 -1h-21q-150 0 -150 258q0 270 154 270q32 0 59 -10v-516zM956 854q-115 68 -348 68q-492 0 -492 -496q0 -197 110 -314q106 -112 273 -112h147v-22q0 -61 -54 -100q-51 -35 -120 -35q-126 0 -225 53l-78 -205q136 -73 328 -73q198 0 317 84
q140 99 140 298h241v213h-239v641zM349 1153h152q-45 39 -45 113q0 95 69 153q62 51 148 51q81 0 117 -28l-31 -74q-17 14 -49 14q-94 0 -94 -114q0 -115 94 -115q35 0 59 2l43 -96h-422z" />
    <glyph glyph-name="uni0625" unicode="&#x625;" horiz-adv-x="573" arabic-form="isolated" 
d="M164 0v1319h317v-1319h-317zM129 -366h115q-33 22 -33 86q0 72 51 116q45 40 109 40q63 0 88 -25l-25 -55q-10 10 -33 10q-71 0 -71 -86t71 -86l41 2l35 -74h-317z" />
    <glyph glyph-name="uniFE88" unicode="&#x625;" horiz-adv-x="690" arabic-form="final" 
d="M698 213h-120q-97 0 -97 88v1018h-317v-995q0 -324 405 -324h129v213zM129 -366h115q-33 22 -33 86q0 72 51 116q45 40 109 40q63 0 88 -25l-25 -55q-10 10 -33 10q-71 0 -71 -86t71 -86l41 2l35 -74h-317z" />
    <glyph glyph-name="uni0626" unicode="&#x626;" horiz-adv-x="1615" arabic-form="isolated" 
d="M1132 383q-204 0 -321 111q-113 106 -113 282q0 173 114 279q118 110 320 110q268 0 381 -180l-276 -119q-17 135 -105 135q-62 0 -88 -64q-20 -51 -20 -159q0 -180 106 -180l29 -2h330q22 -56 30 -124l4 -51l1 -40q0 -194 -124 -293q-111 -88 -304 -88h-541
q-186 0 -308 95q-130 102 -130 270v473h319v-498q0 -58 51 -91q42 -28 97 -28h462q168 0 168 162h-82zM45 1061h139q-39 30 -39 106q0 89 62 142q55 49 133 49t106 -29l-28 -67q-16 12 -41 12q-88 0 -88 -107q0 -106 88 -106q28 0 51 4l41 -90h-387z" />
    <glyph glyph-name="uniFE8A" unicode="&#x626;" horiz-adv-x="1642" arabic-form="final" 
d="M45 776h139q-39 31 -39 107q0 87 62 140q55 48 133 48t106 -29l-28 -67q-13 12 -41 12q-88 0 -88 -104q0 -107 88 -107q28 0 51 2l41 -90h-387zM116 539h319v-582q0 -57 51 -90q43 -28 97 -28h463q168 0 168 161h-315v213h763v-213h-139v-2q0 -194 -123 -292
q-111 -88 -305 -88h-541q-185 0 -308 95q-130 101 -130 269v557z" />
    <glyph glyph-name="uniFE8B" unicode="&#x626;" horiz-adv-x="677" arabic-form="initial" 
d="M-8 0h188q406 0 406 324v598h-320v-621q0 -88 -94 -88h-180v-213zM191 1122h141q-39 28 -39 105q0 89 60 142q55 48 135 48q75 0 104 -28l-27 -68q-15 12 -41 12q-90 0 -90 -106q0 -105 90 -105l23 1q13 0 27 1l41 -90h-385z" />
    <glyph glyph-name="uniFE8C" unicode="&#x626;" horiz-adv-x="788" arabic-form="medial" 
d="M797 0v213h-111q-110 0 -110 96v613h-320v-684q-31 -25 -80 -25h-184v-213h98q111 0 195 25q65 20 115 55q44 -36 107 -55q78 -25 183 -25h107zM191 1122h141q-39 28 -39 105q0 89 60 142q55 48 135 48q75 0 104 -28l-27 -68q-15 12 -41 12q-90 0 -90 -106
q0 -105 90 -105l23 1q13 0 27 1l41 -90h-385z" />
    <glyph glyph-name="uni0627" unicode="&#x627;" horiz-adv-x="573" arabic-form="isolated" 
d="M163 0v1319h317v-1319h-317z" />
    <glyph glyph-name="uniFE8E" unicode="&#x627;" horiz-adv-x="690" arabic-form="final" 
d="M698 213h-121q-97 0 -97 88v1018h-317v-995q0 -324 406 -324h129v213z" />
    <glyph glyph-name="uni0628" unicode="&#x628;" horiz-adv-x="1724" arabic-form="isolated" 
d="M526 0q-410 0 -410 324v598h319v-621q0 -88 97 -88h684q96 0 96 88v621h320v-598q0 -324 -406 -324h-700zM909 -380q-131 0 -131 114q0 119 131 119q137 0 137 -119q0 -114 -137 -114z" />
    <glyph glyph-name="uniFE90" unicode="&#x628;" horiz-adv-x="1841" arabic-form="final" 
d="M872 -382q-131 0 -131 116q0 117 131 117q137 0 137 -117q0 -116 -137 -116zM1849 0v213h-105q-110 0 -110 96v613h-320v-684q-34 -25 -80 -25h-702q-97 0 -97 88v621h-319v-598q0 -324 410 -324h622q111 0 195 25q65 20 114 55q43 -36 106 -55q78 -25 185 -25h101z" />
    <glyph glyph-name="uniFE91" unicode="&#x628;" horiz-adv-x="677" arabic-form="initial" 
d="M-8 0h188q406 0 406 324v598h-320v-621q0 -88 -94 -88h-180v-213zM303 -382q-133 0 -133 116q0 117 133 117q135 0 135 -117q0 -116 -135 -116z" />
    <glyph glyph-name="uniFE92" unicode="&#x628;" horiz-adv-x="788" arabic-form="medial" 
d="M797 0v213h-111q-110 0 -110 96v613h-320v-684q-31 -25 -80 -25h-184v-213h98q111 0 195 25q65 20 115 55q44 -36 107 -55q78 -25 183 -25h107zM426 -382q-133 0 -133 116q0 117 133 117q137 0 137 -117q0 -116 -137 -116z" />
    <glyph glyph-name="uni067E" unicode="&#x67e;" horiz-adv-x="1724" arabic-form="isolated" 
d="M526 0q-410 0 -410 324v598h319v-621q0 -88 97 -88h684q96 0 96 88v621h320v-598q0 -324 -406 -324h-700zM1034 -151q-111 0 -111 -96q0 -101 111 -101q114 0 114 101q0 96 -114 96zM739 -151q-113 0 -113 -96q0 -101 113 -101q114 0 114 101q0 96 -114 96zM880 -362
q-113 0 -113 -98q0 -99 113 -99q115 0 115 99q0 98 -115 98z" />
    <glyph glyph-name="uniFB57" unicode="&#x67e;" horiz-adv-x="1841" arabic-form="final" 
d="M1849 0v213h-105q-110 0 -110 96v613h-320v-684q-34 -25 -80 -25h-702q-97 0 -97 88v621h-319v-598q0 -324 410 -324h622q111 0 195 25q65 20 114 55q43 -36 106 -55q78 -25 185 -25h101zM1034 -151q-111 0 -111 -96q0 -101 111 -101q114 0 114 101q0 96 -114 96z
M739 -151q-113 0 -113 -96q0 -101 113 -101q114 0 114 101q0 96 -114 96zM880 -362q-113 0 -113 -98q0 -99 113 -99q115 0 115 99q0 98 -115 98z" />
    <glyph glyph-name="uniFB58" unicode="&#x67e;" horiz-adv-x="677" arabic-form="initial" 
d="M-8 0h188q406 0 406 324v598h-320v-621q0 -88 -94 -88h-180v-213zM445 -151q-111 0 -111 -96q0 -101 111 -101q114 0 114 101q0 96 -114 96zM150 -151q-113 0 -113 -96q0 -101 113 -101q114 0 114 101q0 96 -114 96zM291 -362q-113 0 -113 -98q0 -99 113 -99
q115 0 115 99q0 98 -115 98z" />
    <glyph glyph-name="uniFB59" unicode="&#x67e;" horiz-adv-x="788" arabic-form="medial" 
d="M797 0v213h-111q-110 0 -110 96v613h-320v-684q-31 -25 -80 -25h-184v-213h98q111 0 195 25q65 20 115 55q44 -36 107 -55q78 -25 183 -25h107zM489 -96q-111 0 -111 -96q0 -100 111 -100q115 0 115 100q0 96 -115 96zM194 -96q-113 0 -113 -96q0 -100 113 -100t113 100
q0 96 -113 96zM333 -307q-112 0 -112 -98t112 -98q115 0 115 98t-115 98z" />
    <glyph glyph-name="uni062A" unicode="&#x62a;" horiz-adv-x="1724" arabic-form="isolated" 
d="M526 0q-410 0 -410 324v598h319v-621q0 -88 97 -88h684q96 0 96 88v621h320v-598q0 -324 -406 -324h-700zM1048 1085q-133 0 -133 115q0 119 133 119q135 0 135 -119q0 -115 -135 -115zM694 1085q-132 0 -132 115q0 119 132 119q137 0 137 -119q0 -115 -137 -115z" />
    <glyph glyph-name="uniFE96" unicode="&#x62a;" horiz-adv-x="1841" arabic-form="final" 
d="M1048 1085q-133 0 -133 115q0 119 133 119q135 0 135 -119q0 -115 -135 -115zM694 1085q-132 0 -132 115q0 119 132 119q137 0 137 -119q0 -115 -137 -115zM1849 0v213h-105q-110 0 -110 96v613h-320v-684q-34 -25 -80 -25h-702q-97 0 -97 88v621h-319v-598
q0 -324 410 -324h622q111 0 195 25q65 20 114 55q43 -36 106 -55q78 -25 185 -25h101z" />
    <glyph glyph-name="uniFE97" unicode="&#x62a;" horiz-adv-x="675" arabic-form="initial" 
d="M-7 0h188q405 0 405 324v598h-319v-621q0 -88 -94 -88h-180v-213zM463 1085q-133 0 -133 115q0 119 133 119q136 0 136 -119q0 -115 -136 -115zM109 1085q-131 0 -131 115q0 119 131 119q137 0 137 -119q0 -115 -137 -115z" />
    <glyph glyph-name="uniFE98" unicode="&#x62a;" horiz-adv-x="788" arabic-form="medial" 
d="M797 0v213h-111q-110 0 -110 96v613h-320v-684q-31 -25 -80 -25h-184v-213h98q111 0 195 25q65 20 114 55q45 -36 107 -55q78 -25 184 -25h107zM440 1085q-133 0 -133 115q0 119 133 119q136 0 136 -119q0 -115 -136 -115zM88 1085q-133 0 -133 115q0 119 133 119
q135 0 135 -119q0 -115 -135 -115z" />
    <glyph glyph-name="uni062B" unicode="&#x62b;" horiz-adv-x="1724" arabic-form="isolated" 
d="M526 0q-410 0 -410 324v598h319v-621q0 -88 97 -88h684q96 0 96 88v621h320v-598q0 -324 -406 -324h-700zM1021 915q-112 0 -112 97q0 100 112 100q113 0 113 -100q0 -97 -113 -97zM724 915q-112 0 -112 97q0 100 112 100q115 0 115 -100q0 -97 -115 -97zM866 1126
q-113 0 -113 99q0 98 113 98q114 0 114 -98q0 -99 -114 -99z" />
    <glyph glyph-name="uniFE9A" unicode="&#x62b;" horiz-adv-x="1841" arabic-form="final" 
d="M1849 0v213h-105q-110 0 -110 96v613h-320v-684q-34 -25 -80 -25h-702q-97 0 -97 88v621h-319v-598q0 -324 410 -324h622q111 0 195 25q65 20 114 55q43 -36 106 -55q78 -25 185 -25h101zM722 915q-112 0 -112 97q0 100 112 100q115 0 115 -100q0 -97 -115 -97zM864 1126
q-113 0 -113 99q0 98 113 98q114 0 114 -98q0 -99 -114 -99zM1019 915q-110 0 -110 97q0 100 110 100q113 0 113 -100q0 -97 -113 -97z" />
    <glyph glyph-name="uniFE9B" unicode="&#x62b;" horiz-adv-x="688" arabic-form="initial" 
d="M-8 0h188q406 0 406 324v598h-320v-621q0 -88 -94 -88h-180v-213zM496 1014q-111 0 -111 98t111 98q114 0 114 -98t-114 -98zM201 1014q-113 0 -113 98t113 98t113 -98t-113 -98zM340 1227q-110 0 -110 96q0 100 110 100q115 0 115 -100q0 -96 -115 -96z" />
    <glyph glyph-name="uniFE9C" unicode="&#x62b;" horiz-adv-x="788" arabic-form="medial" 
d="M797 0v213h-111q-110 0 -110 96v613h-320v-684q-31 -25 -80 -25h-184v-213h98q111 0 195 25q65 20 115 55q44 -36 107 -55q78 -25 183 -25h107zM459 1014q-111 0 -111 98t111 98q115 0 115 -98t-115 -98zM164 1014q-113 0 -113 98t113 98t113 -98t-113 -98zM303 1227
q-112 0 -112 96q0 100 112 100q115 0 115 -100q0 -96 -115 -96z" />
    <glyph glyph-name="uni062C" unicode="&#x62c;" horiz-adv-x="1046" arabic-form="isolated" 
d="M755 -358q-81 -24 -172 -24q-231 0 -357 187q-110 163 -110 408h518v416q0 98 -139 98q-123 0 -246 -55l-65 180q67 28 150 46q113 24 233 24q178 0 276 -78q111 -89 111 -271v-573h-478q0 -77 52 -134q52 -56 123 -58zM853 -288q-133 0 -133 116q0 117 133 117
q135 0 135 -117q0 -116 -135 -116z" />
    <glyph glyph-name="uniFE9E" unicode="&#x62c;" horiz-adv-x="1046" arabic-form="final" 
d="M651 -192q-71 2 -123 58q-52 57 -52 134h578v213h-100v360q0 182 -111 271q-98 78 -276 78q-120 0 -233 -24q-83 -18 -150 -46l65 -180q123 55 246 55q139 0 139 -98v-416h-518q0 -245 110 -408q126 -187 357 -187q91 0 172 24zM853 -288q-133 0 -133 116q0 117 133 117
q135 0 135 -117q0 -116 -135 -116z" />
    <glyph glyph-name="uniFE9F" unicode="&#x62c;" horiz-adv-x="985" arabic-form="initial" 
d="M-8 213v-213h899v573q0 183 -109 271q-98 78 -276 78q-120 0 -233 -24q-85 -19 -150 -46l66 -180q122 55 245 55q140 0 140 -98v-416h-582zM486 -382q-134 0 -134 116q0 117 134 117q135 0 135 -117q0 -116 -135 -116z" />
    <glyph glyph-name="uniFEA0" unicode="&#x62c;" horiz-adv-x="980" arabic-form="medial" 
d="M-8 213v-213h997v213h-98v360q0 183 -109 271q-98 78 -276 78q-120 0 -233 -24q-85 -19 -150 -46l66 -180q122 55 245 55q140 0 140 -98v-416h-582zM486 -382q-134 0 -134 116q0 117 134 117q135 0 135 -117q0 -116 -135 -116z" />
    <glyph glyph-name="uni0686" unicode="&#x686;" horiz-adv-x="1046" arabic-form="isolated" 
d="M755 -358q-81 -24 -172 -24q-231 0 -357 187q-110 163 -110 408h518v416q0 98 -139 98q-123 0 -246 -55l-65 180q67 28 150 46q113 24 233 24q178 0 276 -78q111 -89 111 -271v-573h-478q0 -77 52 -134q52 -56 123 -58zM734 -51q74 0 74 -65q0 -68 -74 -68q-77 0 -77 68
q0 65 77 65zM935 -51q76 0 76 -65q0 -68 -76 -68q-78 0 -78 68q0 65 78 65zM839 -194q76 0 76 -66q0 -67 -76 -67q-78 0 -78 67q0 66 78 66z" />
    <glyph glyph-name="uniFB7B" unicode="&#x686;" horiz-adv-x="1046" arabic-form="final" 
d="M651 -192q-71 2 -123 58q-52 57 -52 134h578v213h-100v360q0 182 -111 271q-98 78 -276 78q-120 0 -233 -24q-83 -18 -150 -46l65 -180q123 55 246 55q139 0 139 -98v-416h-518q0 -245 110 -408q126 -187 357 -187q91 0 172 24zM734 -51q74 0 74 -65q0 -68 -74 -68
q-77 0 -77 68q0 65 77 65zM935 -51q76 0 76 -65q0 -68 -76 -68q-78 0 -78 68q0 65 78 65zM839 -194q76 0 76 -66q0 -67 -76 -67q-78 0 -78 67q0 66 78 66z" />
    <glyph glyph-name="uniFB7C" unicode="&#x686;" horiz-adv-x="985" arabic-form="initial" 
d="M-8 213v-213h899v573q0 183 -109 271q-98 78 -276 78q-120 0 -233 -24q-85 -19 -150 -46l66 -180q122 55 245 55q140 0 140 -98v-416h-582zM340 -157q111 0 111 -96q0 -101 -111 -101q-115 0 -115 101q0 96 115 96zM635 -157q113 0 113 -96q0 -101 -113 -101
q-115 0 -115 101q0 96 115 96zM494 -368q112 0 112 -98q0 -99 -112 -99q-115 0 -115 99q0 98 115 98z" />
    <glyph glyph-name="uniFB7D" unicode="&#x686;" horiz-adv-x="980" arabic-form="medial" 
d="M-8 213v-213h997v213h-98v360q0 183 -109 271q-98 78 -276 78q-120 0 -233 -24q-85 -19 -150 -46l66 -180q122 55 245 55q140 0 140 -98v-416h-582zM340 -157q111 0 111 -96q0 -101 -111 -101q-115 0 -115 101q0 96 115 96zM635 -157q113 0 113 -96q0 -101 -113 -101
q-115 0 -115 101q0 96 115 96zM494 -368q112 0 112 -98q0 -99 -112 -99q-115 0 -115 99q0 98 115 98z" />
    <glyph glyph-name="uni062D" unicode="&#x62d;" horiz-adv-x="1046" arabic-form="isolated" 
d="M476 0q0 -79 54 -136q54 -56 127 -56q67 0 129 33l63 -154q-95 -69 -266 -69q-231 0 -357 187q-110 163 -110 408h518v416q0 98 -139 98q-123 0 -246 -55l-65 180q67 28 150 46q113 24 233 24q178 0 276 -78q111 -89 111 -271v-573h-478z" />
    <glyph glyph-name="uniFEA2" unicode="&#x62d;" horiz-adv-x="1040" arabic-form="final" 
d="M1048 0v213h-94v360q0 182 -111 271q-98 78 -276 78q-120 0 -233 -24q-83 -18 -150 -46l65 -180q123 55 246 55q139 0 139 -98v-416h-518q0 -245 110 -408q126 -187 357 -187q171 0 266 69l-63 154q-62 -33 -129 -33q-73 0 -127 56q-54 57 -54 136h572z" />
    <glyph glyph-name="uniFEA3" unicode="&#x62d;" horiz-adv-x="985" arabic-form="initial" 
d="M-8 213v-213h899v573q0 183 -109 271q-98 78 -276 78q-120 0 -233 -24q-85 -19 -150 -46l66 -180q122 55 245 55q140 0 140 -98v-416h-582z" />
    <glyph glyph-name="uniFEA4" unicode="&#x62d;" horiz-adv-x="980" arabic-form="medial" 
d="M-8 213v-213h997v213h-98v360q0 183 -109 271q-98 78 -276 78q-120 0 -233 -24q-85 -19 -150 -46l66 -180q122 55 245 55q140 0 140 -98v-416h-582z" />
    <glyph glyph-name="uni062E" unicode="&#x62e;" horiz-adv-x="1046" arabic-form="isolated" 
d="M476 0q0 -79 54 -136q54 -56 127 -56q67 0 129 33l63 -154q-95 -69 -266 -69q-231 0 -357 187q-110 163 -110 408h518v416q0 98 -139 98q-123 0 -246 -55l-65 180q67 28 150 46q113 24 233 24q178 0 276 -78q111 -89 111 -271v-573h-478zM567 1085q-134 0 -134 115
q0 119 134 119q137 0 137 -119q0 -115 -137 -115z" />
    <glyph glyph-name="uniFEA6" unicode="&#x62e;" horiz-adv-x="1040" arabic-form="final" 
d="M1048 0v213h-94v360q0 182 -111 271q-98 78 -276 78q-120 0 -233 -24q-83 -18 -150 -46l65 -180q123 55 246 55q139 0 139 -98v-416h-518q0 -245 110 -408q126 -187 357 -187q171 0 266 69l-63 154q-62 -33 -129 -33q-73 0 -127 56q-54 57 -54 136h572zM567 1085
q-134 0 -134 115q0 119 134 119q137 0 137 -119q0 -115 -137 -115z" />
    <glyph glyph-name="uniFEA7" unicode="&#x62e;" horiz-adv-x="985" arabic-form="initial" 
d="M-8 213v-213h899v573q0 183 -109 271q-98 78 -276 78q-120 0 -233 -24q-85 -19 -150 -46l66 -180q122 55 245 55q140 0 140 -98v-416h-582zM506 1085q-133 0 -133 115q0 119 133 119q135 0 135 -119q0 -115 -135 -115z" />
    <glyph glyph-name="uniFEA8" unicode="&#x62e;" horiz-adv-x="980" arabic-form="medial" 
d="M-8 213v-213h997v213h-98v360q0 183 -109 271q-98 78 -276 78q-120 0 -233 -24q-85 -19 -150 -46l66 -180q122 55 245 55q140 0 140 -98v-416h-582zM506 1085q-133 0 -133 115q0 119 133 119q135 0 135 -119q0 -115 -135 -115z" />
    <glyph glyph-name="uni062F" unicode="&#x62f;" horiz-adv-x="1026" arabic-form="isolated" 
d="M120 213h379q102 0 102 80q0 8 -2 18l-80 213l-67 170h-64v228h297l209 -500q39 -93 39 -166q0 -125 -97 -196q-84 -60 -198 -60h-518v213z" />
    <glyph glyph-name="uniFEAA" unicode="&#x62f;" horiz-adv-x="1208" arabic-form="final" 
d="M116 0h522q114 0 199 61q45 -28 106 -43q70 -18 162 -18h111v213h-121q-106 0 -152 92l-258 617h-297v-228h64l147 -383q2 -10 2 -18q0 -80 -102 -80h-383v-213z" />
    <glyph glyph-name="uni0630" unicode="&#x630;" horiz-adv-x="1026" arabic-form="isolated" 
d="M452 1085q-131 0 -131 115q0 119 131 119q137 0 137 -119q0 -115 -137 -115zM120 213h379q102 0 102 80q0 8 -2 18l-80 213l-67 170h-64v228h297l209 -500q39 -93 39 -166q0 -125 -97 -196q-84 -60 -198 -60h-518v213z" />
    <glyph glyph-name="uniFEAC" unicode="&#x630;" horiz-adv-x="1208" arabic-form="final" 
d="M452 1085q-131 0 -131 115q0 119 131 119q137 0 137 -119q0 -115 -137 -115zM116 0h522q114 0 199 61q45 -28 106 -43q70 -18 162 -18h111v213h-121q-106 0 -152 92l-258 617h-297v-228h64l147 -383q2 -10 2 -18q0 -80 -102 -80h-383v-213z" />
    <glyph glyph-name="uni0631" unicode="&#x631;" horiz-adv-x="659" arabic-form="isolated" 
d="M-43 -366q48 -7 92 -11q55 -5 98 -5q191 0 299 89q119 98 119 293v922h-317v-926q0 -155 -168 -155q-45 0 -66 4z" />
    <glyph glyph-name="uniFEAE" unicode="&#x631;" horiz-adv-x="765" arabic-form="final" 
d="M565 922h-317v-926q0 -155 -168 -155q-45 0 -66 4l-57 -211l92 -11q55 -5 98 -5q191 0 299 89q119 98 119 293v18q39 -18 115 -18h94v213h-100q-109 0 -109 88v621z" />
    <glyph glyph-name="uni0632" unicode="&#x632;" horiz-adv-x="659" arabic-form="isolated" 
d="M-43 -366q48 -7 92 -11q55 -5 98 -5q191 0 299 89q119 98 119 293v922h-317v-926q0 -155 -168 -155q-45 0 -66 4zM403 1085q-133 0 -133 115q0 119 133 119q136 0 136 -119q0 -115 -136 -115z" />
    <glyph glyph-name="uniFEB0" unicode="&#x632;" horiz-adv-x="765" arabic-form="final" 
d="M565 922h-317v-926q0 -155 -168 -155q-45 0 -66 4l-57 -211l92 -11q55 -5 98 -5q191 0 299 89q119 98 119 293v18q39 -18 115 -18h94v213h-100q-109 0 -109 88v621zM403 1085q-133 0 -133 115q0 119 133 119q136 0 136 -119q0 -115 -136 -115z" />
    <glyph glyph-name="uni0698" unicode="&#x698;" horiz-adv-x="659" arabic-form="isolated" 
d="M-43 -366q48 -7 92 -11q55 -5 98 -5q191 0 299 89q119 98 119 293v922h-317v-926q0 -155 -168 -155q-45 0 -66 4zM547 1104q-111 0 -111 96q0 100 111 100q115 0 115 -100q0 -96 -115 -96zM252 1104q-113 0 -113 96q0 100 113 100q115 0 115 -100q0 -96 -115 -96z
M393 1315q-112 0 -112 98t112 98q115 0 115 -98t-115 -98z" />
    <glyph glyph-name="uniFB8B" unicode="&#x698;" horiz-adv-x="765" arabic-form="final" 
d="M565 922h-317v-926q0 -155 -168 -155q-45 0 -66 4l-57 -211l92 -11q55 -5 98 -5q191 0 299 89q119 98 119 293v18q39 -18 115 -18h94v213h-100q-109 0 -109 88v621zM526 1104q-110 0 -110 96q0 100 110 100q115 0 115 -100q0 -96 -115 -96zM231 1104q-112 0 -112 96
q0 100 112 100q115 0 115 -100q0 -96 -115 -96zM373 1315q-113 0 -113 98t113 98q114 0 114 -98t-114 -98z" />
    <glyph glyph-name="uni0633" unicode="&#x633;" horiz-adv-x="2181" arabic-form="isolated" 
d="M1072 6q7 0 21 -2l74 -4q98 3 169 27q59 20 101 55q48 -36 115 -55q83 -25 194 -25q342 0 342 295v625h-319v-627q0 -94 -109 -94q-47 0 -80 22v699h-319v-627q0 -94 -109 -94q-44 0 -80 22v699h-319v-936q0 -56 -54 -90q-46 -29 -102 -29t-104 28q-58 34 -58 91v936
h-319v-940q0 -165 151 -269q138 -95 328 -95q191 0 328 95q149 104 149 271v22z" />
    <glyph glyph-name="uniFEB2" unicode="&#x633;" horiz-adv-x="2299" arabic-form="final" 
d="M116 -18q0 -165 151 -269q138 -95 328 -95q191 0 328 95q149 104 149 271v22l95 -6q98 3 169 27q59 20 101 55q48 -36 115 -55q83 -25 194 -25q119 0 207 49q95 -51 250 -51h104v213h-108q-104 0 -111 88v621h-319v-627q0 -94 -109 -94q-47 0 -80 22v699h-319v-627
q0 -94 -109 -94q-44 0 -80 22v699h-319v-936q0 -56 -52 -90q-44 -29 -100 -29t-106 28q-60 34 -60 91v936h-319v-940z" />
    <glyph glyph-name="uniFEB3" unicode="&#x633;" horiz-adv-x="1683" arabic-form="initial" 
d="M840 27q58 20 100 55q48 -36 115 -55q83 -25 194 -25q342 0 342 295v625h-317v-627q0 -94 -111 -94q-44 0 -79 22v699h-320v-627q0 -94 -108 -94q-45 0 -80 22v699h-320v-684q-31 -25 -80 -25h-184v-213h98q111 0 195 25q65 20 115 55q42 -34 99 -53q72 -24 171 -27
q98 3 170 27z" />
    <glyph glyph-name="uniFEB4" unicode="&#x633;" horiz-adv-x="1804" arabic-form="medial" 
d="M1591 922h-317v-627q0 -94 -111 -94q-44 0 -79 22v699h-320v-627q0 -94 -108 -94q-45 0 -80 22v699h-320v-684q-31 -25 -80 -25h-184v-213h98q111 0 195 25q65 20 115 55q42 -34 99 -53q72 -24 171 -27q98 3 170 27q58 20 100 55q48 -36 115 -55q83 -25 194 -25
q122 0 207 49q95 -51 250 -51h107v213h-111q-104 0 -111 88v621z" />
    <glyph glyph-name="uni0634" unicode="&#x634;" horiz-adv-x="2181" arabic-form="isolated" 
d="M1263 1014q-111 0 -111 98t111 98q115 0 115 -98t-115 -98zM1404 1227q-112 0 -112 96q0 100 112 100q115 0 115 -100q0 -96 -115 -96zM1560 1014q-111 0 -111 98t111 98q115 0 115 -98t-115 -98zM1072 6q7 0 21 -2l74 -4q98 3 169 27q59 20 101 55q48 -36 115 -55
q83 -25 194 -25q342 0 342 295v625h-319v-627q0 -94 -109 -94q-47 0 -80 22v699h-319v-627q0 -94 -109 -94q-44 0 -80 22v699h-319v-936q0 -56 -54 -90q-46 -29 -102 -29t-104 28q-58 34 -58 91v936h-319v-940q0 -165 151 -269q138 -95 328 -95q191 0 328 95
q149 104 149 271v22z" />
    <glyph glyph-name="uniFEB6" unicode="&#x634;" horiz-adv-x="2299" arabic-form="final" 
d="M116 -18q0 -165 151 -269q138 -95 328 -95q191 0 328 95q149 104 149 271v22l95 -6q98 3 169 27q59 20 101 55q48 -36 115 -55q83 -25 194 -25q119 0 207 49q95 -51 250 -51h104v213h-108q-104 0 -111 88v621h-319v-627q0 -94 -109 -94q-47 0 -80 22v699h-319v-627
q0 -94 -109 -94q-44 0 -80 22v699h-319v-936q0 -56 -52 -90q-44 -29 -100 -29t-106 28q-60 34 -60 91v936h-319v-940zM1404 1227q-112 0 -112 96q0 100 112 100q115 0 115 -100q0 -96 -115 -96zM1263 1014q-111 0 -111 98t111 98q115 0 115 -98t-115 -98zM1560 1014
q-111 0 -111 98t111 98q115 0 115 -98t-115 -98z" />
    <glyph glyph-name="uniFEB7" unicode="&#x634;" horiz-adv-x="1683" arabic-form="initial" 
d="M840 27q58 20 100 55q48 -36 115 -55q83 -25 194 -25q342 0 342 295v625h-317v-627q0 -94 -111 -94q-44 0 -79 22v699h-320v-627q0 -94 -108 -94q-45 0 -80 22v699h-320v-684q-31 -25 -80 -25h-184v-213h98q111 0 195 25q65 20 115 55q42 -34 99 -53q72 -24 171 -27
q98 3 170 27zM1063 1014q-110 0 -110 98t110 98q115 0 115 -98t-115 -98zM768 1014q-112 0 -112 98t112 98q115 0 115 -98t-115 -98zM910 1227q-113 0 -113 96q0 100 113 100q112 0 112 -100q0 -96 -112 -96z" />
    <glyph glyph-name="uniFEB8" unicode="&#x634;" horiz-adv-x="1804" arabic-form="medial" 
d="M1591 922h-317v-627q0 -94 -111 -94q-44 0 -79 22v699h-320v-627q0 -94 -108 -94q-45 0 -80 22v699h-320v-684q-31 -25 -80 -25h-184v-213h98q111 0 195 25q65 20 115 55q42 -34 99 -53q72 -24 171 -27q98 3 170 27q58 20 100 55q48 -36 115 -55q83 -25 194 -25
q122 0 207 49q95 -51 250 -51h107v213h-111q-104 0 -111 88v621zM768 1014q-112 0 -112 98t112 98q115 0 115 -98t-115 -98zM910 1227q-113 0 -113 96q0 100 113 100q112 0 112 -100q0 -96 -112 -96zM1063 1014q-110 0 -110 98t110 98q115 0 115 -98t-115 -98z" />
    <glyph glyph-name="uni0635" unicode="&#x635;" horiz-adv-x="2095" arabic-form="isolated" 
d="M1072 922h-319v-936q0 -56 -51 -90q-43 -29 -99 -29t-106 28q-62 35 -62 91v936h-319v-940q0 -165 151 -269q138 -95 328 -95q191 0 328 95q149 104 149 271l-2 16h623q125 0 213 122q91 127 94 324v13q0 214 -115 349q-110 130 -272 130t-300 -115q-119 -100 -241 -305
v404zM1072 213q130 281 261 414q108 111 210 112q150 0 150 -247v-17q-6 -233 -156 -262h-465z" />
    <glyph glyph-name="uniFEBA" unicode="&#x635;" horiz-adv-x="2125" arabic-form="final" 
d="M1070 213q130 280 261 414q110 111 212 112q150 0 150 -247v-17q-9 -233 -158 -262h-465zM2133 0v213h-180q44 101 47 233v13q0 213 -116 349q-111 130 -273 130q-161 0 -298 -115q-119 -100 -241 -305v404h-319v-936q0 -56 -51 -90q-43 -29 -99 -29t-106 28
q-62 35 -62 91v936h-319v-940q0 -165 151 -269q138 -95 328 -95q191 0 328 95q149 104 149 271v16h1061z" />
    <glyph glyph-name="uniFEBB" unicode="&#x635;" horiz-adv-x="1581" arabic-form="initial" 
d="M799 823q-118 -100 -240 -305l17 201h-320v-481q-31 -25 -80 -25h-184v-213h1188q124 0 213 122q94 128 94 324q0 222 -113 359q-109 133 -276 133q-161 0 -299 -115zM557 213q130 280 261 414q110 111 212 112q150 0 150 -250q0 -245 -158 -276h-465z" />
    <glyph glyph-name="uniFEBC" unicode="&#x635;" horiz-adv-x="1611" arabic-form="medial" 
d="M799 823q-118 -100 -240 -305l17 201h-320v-481q-31 -25 -80 -25h-184v-213h1628v213h-178q21 55 32 108q13 64 13 125q0 222 -113 359q-109 133 -276 133q-161 0 -299 -115zM557 213q130 280 261 414q110 111 212 112q150 0 150 -250q0 -245 -158 -276h-465z" />
    <glyph glyph-name="uni0636" unicode="&#x636;" horiz-adv-x="2095" arabic-form="isolated" 
d="M1605 1327q-135 0 -135 -117q0 -116 135 -116t135 116q0 117 -135 117zM1072 922h-319v-936q0 -56 -51 -90q-43 -29 -99 -29t-106 28q-62 35 -62 91v936h-319v-940q0 -165 151 -269q138 -95 328 -95q191 0 328 95q149 104 149 271l-2 16h623q125 0 213 122q91 127 94 324
v13q0 214 -115 349q-110 130 -272 130t-300 -115q-119 -100 -241 -305v404zM1072 213q130 281 261 414q108 111 210 112q150 0 150 -247v-17q-6 -233 -156 -262h-465z" />
    <glyph glyph-name="uniFEBE" unicode="&#x636;" horiz-adv-x="2125" arabic-form="final" 
d="M1070 213q130 280 261 414q110 111 212 112q150 0 150 -247v-17q-9 -233 -158 -262h-465zM1603 1327q-135 0 -135 -117q0 -116 135 -116t135 116q0 117 -135 117zM2133 0v213h-180q44 101 47 233v13q0 213 -116 349q-111 130 -273 130q-161 0 -298 -115
q-119 -100 -241 -305v404h-319v-936q0 -56 -51 -90q-43 -29 -99 -29t-106 28q-62 35 -62 91v936h-319v-940q0 -165 151 -269q138 -95 328 -95q191 0 328 95q149 104 149 271v16h1061z" />
    <glyph glyph-name="uniFEBF" unicode="&#x636;" horiz-adv-x="1581" arabic-form="initial" 
d="M1090 1327q-133 0 -133 -117q0 -116 133 -116q135 0 135 116q0 117 -135 117zM799 823q-118 -100 -240 -305l17 201h-320v-481q-31 -25 -80 -25h-184v-213h1188q124 0 213 122q94 128 94 324q0 222 -113 359q-109 133 -276 133q-161 0 -299 -115zM557 213
q130 280 261 414q110 111 212 112q150 0 150 -250q0 -245 -158 -276h-465z" />
    <glyph glyph-name="uniFEC0" unicode="&#x636;" horiz-adv-x="1611" arabic-form="medial" 
d="M1090 1327q-133 0 -133 -117q0 -116 133 -116q135 0 135 116q0 117 -135 117zM799 823q-118 -100 -240 -305l17 201h-320v-481q-31 -25 -80 -25h-184v-213h1628v213h-178q21 55 32 108q13 64 13 125q0 222 -113 359q-109 133 -276 133q-161 0 -299 -115zM557 213
q130 280 261 414q110 111 212 112q150 0 150 -250q0 -245 -158 -276h-465z" />
    <glyph glyph-name="uni0637" unicode="&#x637;" horiz-adv-x="1644" arabic-form="isolated" 
d="M1242 0q126 0 215 122q93 128 93 324q0 222 -114 359q-109 133 -276 133q-94 0 -183 -42q-71 -34 -135 -93q-26 -23 -49 -50l-36 -43q-29 -39 -29 -42v587h-319v-1042h-215l-78 -213h1126zM620 213q131 274 261 408q112 117 212 118q149 0 149 -250q0 -246 -155 -276
h-467z" />
    <glyph glyph-name="uniFEC2" unicode="&#x637;" horiz-adv-x="1681" arabic-form="final" 
d="M1505 213q20 55 31 108q14 64 14 125q0 222 -114 359q-109 133 -276 133q-92 0 -179 -40q-71 -33 -135 -90q-25 -23 -49 -49q-19 -21 -36 -43q-13 -17 -23 -33l-10 -15v587h-319v-1042h-215l-78 -213h1573v213h-184zM620 213q131 274 261 408q112 117 212 118
q149 0 149 -250q0 -246 -155 -276h-467z" />
    <glyph glyph-name="uniFEC3" unicode="&#x637;" horiz-adv-x="1443" arabic-form="initial" 
d="M1069 0q125 0 214 122q93 128 93 324q0 221 -114 359q-109 133 -275 133q-94 0 -183 -42q-71 -34 -136 -93q-25 -23 -48 -50l-36 -43q-29 -39 -29 -42v587h-319v-1042h-242v-213h1075zM447 213q131 274 261 408q112 117 212 118q149 0 149 -250q0 -245 -157 -276h-465z
" />
    <glyph glyph-name="uniFEC4" unicode="&#x637;" horiz-adv-x="1464" arabic-form="medial" 
d="M1307 213q20 55 32 108q13 64 13 125q0 221 -113 359q-109 133 -274 133q-93 0 -181 -40q-71 -33 -135 -90q-26 -23 -50 -49q-19 -21 -36 -43q-13 -17 -23 -33l-9 -15v587h-320v-1042h-219v-213h1481v213h-166zM424 213q131 274 260 408q112 117 211 118q150 0 150 -250
q0 -246 -156 -276h-465z" />
    <glyph glyph-name="uni0638" unicode="&#x638;" horiz-adv-x="1644" arabic-form="isolated" 
d="M1152 1327q-133 0 -133 -117q0 -116 133 -116q135 0 135 116q0 117 -135 117zM1242 0q126 0 215 122q93 128 93 324q0 222 -114 359q-109 133 -276 133q-94 0 -183 -42q-71 -34 -135 -93q-26 -23 -49 -50l-36 -43q-29 -39 -29 -42v587h-319v-1042h-215l-78 -213h1126z
M620 213q131 274 261 408q112 117 212 118q149 0 149 -250q0 -246 -155 -276h-467z" />
    <glyph glyph-name="uniFEC6" unicode="&#x638;" horiz-adv-x="1681" arabic-form="final" 
d="M1505 213q20 55 31 108q14 64 14 125q0 222 -114 359q-109 133 -276 133q-92 0 -179 -40q-71 -33 -135 -90q-25 -23 -49 -49q-19 -21 -36 -43q-13 -17 -23 -33l-10 -15v587h-319v-1042h-215l-78 -213h1573v213h-184zM620 213q131 274 261 408q112 117 212 118
q149 0 149 -250q0 -246 -155 -276h-467zM1152 1327q-133 0 -133 -117q0 -116 133 -116q135 0 135 116q0 117 -135 117z" />
    <glyph glyph-name="uniFEC7" unicode="&#x638;" horiz-adv-x="1443" arabic-form="initial" 
d="M1069 0q125 0 214 122q93 128 93 324q0 221 -114 359q-109 133 -275 133q-94 0 -183 -42q-71 -34 -136 -93q-25 -23 -48 -50l-36 -43q-29 -39 -29 -42v587h-319v-1042h-242v-213h1075zM447 213q131 274 261 408q112 117 212 118q149 0 149 -250q0 -245 -157 -276h-465z
M979 1327q-135 0 -135 -117q0 -116 135 -116t135 116q0 117 -135 117z" />
    <glyph glyph-name="uniFEC8" unicode="&#x638;" horiz-adv-x="1464" arabic-form="medial" 
d="M1307 213q20 55 32 108q13 64 13 125q0 221 -113 359q-109 133 -274 133q-93 0 -181 -40q-71 -33 -135 -90q-26 -23 -50 -49q-19 -21 -36 -43q-13 -17 -23 -33l-9 -15v587h-320v-1042h-219v-213h1481v213h-166zM424 213q131 274 260 408q112 117 211 118q150 0 150 -250
q0 -246 -156 -276h-465zM957 1327q-136 0 -136 -117q0 -116 136 -116q133 0 133 116q0 117 -133 117z" />
    <glyph glyph-name="uni0639" unicode="&#x639;" horiz-adv-x="976" arabic-form="isolated" 
d="M476 0q0 -79 54 -136q54 -56 127 -56q67 0 129 33l63 -154q-95 -69 -266 -69q-231 0 -357 187q-110 163 -110 408h205q-51 112 -51 260q0 221 116 349q106 116 267 116q155 0 231 -66l-61 -165q-40 32 -95 32q-145 0 -145 -264q0 -262 145 -262h156v-213h-408z" />
    <glyph glyph-name="uniFECA" unicode="&#x639;" horiz-adv-x="974" arabic-form="final" 
d="M982 0v213h-254q-145 0 -145 262q0 264 145 264q55 0 95 -32l61 165q-76 66 -231 66q-161 0 -267 -116q-116 -128 -116 -349q0 -148 51 -260h-205q0 -245 110 -408q126 -187 357 -187q171 0 266 69l-63 154q-62 -33 -129 -33q-73 0 -127 56q-54 57 -54 136h506z" />
    <glyph glyph-name="uniFECB" unicode="&#x639;" horiz-adv-x="905" arabic-form="initial" 
d="M-20 0h606q86 0 147 20q50 17 85 48l-66 180q-38 -35 -94 -35q-146 0 -146 262q0 264 146 264q54 0 94 -32l62 165q-77 66 -232 66q-161 0 -267 -116q-116 -128 -116 -349q0 -148 51 -260h-270v-213z" />
    <glyph glyph-name="uniFECC" unicode="&#x639;" horiz-adv-x="907" arabic-form="medial" 
d="M674 213q-145 0 -145 262q0 264 145 264q58 0 94 -32l64 165q-80 66 -234 66q-160 0 -266 -116q-116 -128 -116 -349q0 -148 51 -260h-287v-213h954v213h-260z" />
    <glyph glyph-name="uni063A" unicode="&#x63a;" horiz-adv-x="976" arabic-form="isolated" 
d="M476 0q0 -79 54 -136q54 -56 127 -56q67 0 129 33l63 -154q-95 -69 -266 -69q-231 0 -357 187q-110 163 -110 408h205q-51 112 -51 260q0 221 116 349q106 116 267 116q155 0 231 -66l-61 -165q-40 32 -95 32q-145 0 -145 -264q0 -262 145 -262h156v-213h-408zM636 1327
q-135 0 -135 -117q0 -116 135 -116q133 0 133 116q0 117 -133 117z" />
    <glyph glyph-name="uniFECE" unicode="&#x63a;" horiz-adv-x="974" arabic-form="final" 
d="M982 0v213h-254q-145 0 -145 262q0 264 145 264q55 0 95 -32l61 165q-76 66 -231 66q-161 0 -267 -116q-116 -128 -116 -349q0 -148 51 -260h-205q0 -245 110 -408q126 -187 357 -187q171 0 266 69l-63 154q-62 -33 -129 -33q-73 0 -127 56q-54 57 -54 136h506zM636 1327
q-135 0 -135 -117q0 -116 135 -116q133 0 133 116q0 117 -133 117z" />
    <glyph glyph-name="uniFECF" unicode="&#x63a;" horiz-adv-x="905" arabic-form="initial" 
d="M-20 0h606q86 0 147 20q50 17 85 48l-66 180q-38 -35 -94 -35q-146 0 -146 262q0 264 146 264q54 0 94 -32l62 165q-77 66 -232 66q-161 0 -267 -116q-116 -128 -116 -349q0 -148 51 -260h-270v-213zM564 1327q-133 0 -133 -117q0 -116 133 -116q135 0 135 116
q0 117 -135 117z" />
    <glyph glyph-name="uniFED0" unicode="&#x63a;" horiz-adv-x="907" arabic-form="medial" 
d="M674 213q-145 0 -145 262q0 264 145 264q58 0 94 -32l64 165q-80 66 -234 66q-160 0 -266 -116q-116 -128 -116 -349q0 -148 51 -260h-287v-213h954v213h-260zM580 1327q-133 0 -133 -117q0 -116 133 -116q135 0 135 116q0 117 -135 117z" />
    <glyph glyph-name="uni0641" unicode="&#x641;" horiz-adv-x="1716" arabic-form="isolated" 
d="M1236 1327q-135 0 -135 -117q0 -116 135 -116q133 0 133 116q0 117 -133 117zM532 213q-97 0 -97 88v621h-319v-586q0 -170 103 -256q95 -80 268 -80h749q188 0 282 72q105 81 105 260v538q-148 68 -360 68q-188 0 -305 -65q-137 -77 -137 -228q0 -159 152 -238
q65 -35 161 -56q81 -18 192 -29q0 -109 -116 -109h-678zM1326 471q-90 4 -142 37q-67 42 -67 129q0 133 136 133q37 0 73 -12v-287z" />
    <glyph glyph-name="uniFED2" unicode="&#x641;" horiz-adv-x="1806" arabic-form="final" 
d="M1159 0q89 6 158 29q56 19 100 51q45 -36 107 -55q78 -25 184 -25h127v213h-131q-111 0 -111 96v561q-156 68 -358 68q-189 0 -306 -65q-139 -77 -139 -228q0 -159 153 -238q65 -35 161 -56q81 -18 192 -29q0 -109 -116 -109h-678q-97 0 -97 88v621h-317v-586
q0 -170 102 -256q95 -80 267 -80h702zM1296 471q-90 4 -143 37q-66 42 -66 129q0 133 136 133q36 0 73 -12v-287zM1208 1327q-133 0 -133 -117q0 -116 133 -116q135 0 135 116q0 117 -135 117z" />
    <glyph glyph-name="uniFED3" unicode="&#x641;" horiz-adv-x="1030" arabic-form="initial" 
d="M553 1327q-135 0 -135 -117q0 -116 135 -116q133 0 133 116q0 117 -133 117zM553 0q188 0 282 72q105 81 105 260v538q-148 68 -360 68q-188 0 -305 -65q-138 -77 -138 -228q0 -159 153 -238q65 -35 161 -56q81 -18 192 -29q0 -109 -100 -109h-551v-213h561zM643 471
q-90 4 -143 37q-66 42 -66 129q0 133 136 133q36 0 73 -12v-287z" />
    <glyph glyph-name="uniFED4" unicode="&#x641;" horiz-adv-x="1177" arabic-form="medial" 
d="M1190 213h-131q-113 0 -113 96v561q-148 68 -360 68q-188 0 -305 -65q-137 -77 -137 -228q0 -159 151 -238q65 -35 161 -56q81 -18 193 -29q0 -109 -102 -109h-555v-213h471q109 0 193 25q65 20 114 55q45 -36 107 -55q78 -25 184 -25h129v213zM649 471q-91 4 -143 37
q-65 42 -65 129q0 133 135 133q37 0 73 -12v-287zM563 1327q-135 0 -135 -117q0 -116 135 -116q134 0 134 116q0 117 -134 117z" />
    <glyph glyph-name="uni0642" unicode="&#x642;" horiz-adv-x="1579" arabic-form="isolated" 
d="M1484 -4q0 -166 -117 -271q-120 -107 -317 -107h-467q-188 0 -322 95q-145 103 -145 269v583h319v-616q0 -57 58 -91q47 -27 102 -27h445q83 0 119 51q28 42 28 118q-210 18 -350 115q-156 108 -156 272q0 295 422 295q98 0 215 -24q92 -19 166 -46v-616zM1187 500
q-24 12 -70 12q-139 0 -139 -133q0 -86 68 -130q56 -36 141 -36v287zM937 811q-133 0 -133 117q0 116 133 116q137 0 137 -116q0 -117 -137 -117zM1292 811q-136 0 -136 117q0 116 136 116q133 0 133 -116q0 -117 -133 -117z" />
    <glyph glyph-name="uniFED6" unicode="&#x642;" horiz-adv-x="1574" arabic-form="final" 
d="M1050 -382q199 0 317 108q115 105 115 274h100v213h-98v399q-74 27 -166 46q-117 24 -215 24q-422 0 -422 -295q0 -164 156 -272q140 -97 350 -115q0 -76 -28 -118q-36 -51 -119 -51h-445q-53 0 -95 27q-50 34 -50 91v616h-334v-583q0 -166 145 -269q134 -95 322 -95h467
zM1187 213q-85 0 -141 36q-68 44 -68 130q0 133 139 133q46 0 70 -12v-287zM937 811q-133 0 -133 117q0 116 133 116q137 0 137 -116q0 -117 -137 -117zM1292 811q-136 0 -136 117q0 116 136 116q133 0 133 -116q0 -117 -133 -117z" />
    <glyph glyph-name="uniFED7" unicode="&#x642;" horiz-adv-x="1030" arabic-form="initial" 
d="M748 1325q-135 0 -135 -117q0 -116 135 -116t135 116q0 117 -135 117zM395 1092q-135 0 -135 116q0 117 135 117q136 0 136 -117q0 -116 -136 -116zM553 0q188 0 282 72q105 81 105 260v538q-148 68 -360 68q-188 0 -305 -65q-138 -77 -138 -228q0 -159 153 -238
q65 -35 161 -56q81 -18 192 -29q0 -109 -100 -109h-551v-213h561zM643 471q-90 4 -143 37q-66 42 -66 129q0 133 136 133q36 0 73 -12v-287z" />
    <glyph glyph-name="uniFED8" unicode="&#x642;" horiz-adv-x="1177" arabic-form="medial" 
d="M1190 213h-131q-113 0 -113 96v561q-148 68 -360 68q-188 0 -305 -65q-137 -77 -137 -228q0 -159 151 -238q65 -35 161 -56q81 -18 193 -29q0 -109 -102 -109h-555v-213h471q109 0 193 25q65 20 114 55q45 -36 107 -55q78 -25 184 -25h129v213zM649 471q-91 4 -143 37
q-65 42 -65 129q0 133 135 133q37 0 73 -12v-287zM752 1325q-135 0 -135 -117q0 -116 135 -116q133 0 133 116q0 117 -133 117zM398 1092q-134 0 -134 116q0 117 134 117q137 0 137 -117q0 -116 -137 -116z" />
    <glyph glyph-name="uni0643" unicode="&#x643;" horiz-adv-x="1724" arabic-form="isolated" 
d="M622 678h160q-50 60 -50 139q0 118 74 189q66 63 156 63q83 0 125 -35l-33 -88q-23 17 -51 17q-103 0 -103 -144q0 -141 103 -141q35 0 57 2l47 -117h-442zM526 0q-410 0 -410 324v239h319v-262q0 -88 97 -88h684q96 0 96 88v1018h320v-995q0 -324 -406 -324h-700z" />
    <glyph glyph-name="uniFB8F" unicode="&#x6a9;" horiz-adv-x="1841" arabic-form="final" 
d="M1849 0v213h-105q-110 0 -110 96v1010h-320v-1081q-34 -25 -80 -25h-702q-97 0 -97 88v264h-319v-241q0 -324 410 -324h622q111 0 195 25q65 20 114 55q43 -36 106 -55q78 -25 185 -25h101zM624 678h160q-50 60 -50 139q0 118 74 189q65 63 156 63q83 0 125 -35l-33 -88
q-23 17 -53 17q-101 0 -101 -144q0 -141 101 -141q37 0 59 2l47 -117h-442z" />
    <glyph glyph-name="uniFB90" unicode="&#x6a9;" horiz-adv-x="985" arabic-form="initial" 
d="M902 1057l-102 282l-744 -602l74 -211l74 52q55 21 108 33q67 16 123 16q139 0 139 -99v-315h-608v-213h926v471q0 170 -95 259q-84 79 -241 89z" />
    <glyph glyph-name="uniFB91" unicode="&#x6a9;" horiz-adv-x="985" arabic-form="medial" 
d="M-34 0h1032v213h-106v258q0 170 -95 259q-84 79 -241 89l346 238l-102 282l-744 -602l74 -211l74 52q55 21 108 33q67 16 123 16q139 0 139 -99v-315h-608v-213z" />
    <glyph glyph-name="uni06AF" unicode="&#x6af;" horiz-adv-x="1724" arabic-form="isolated" 
d="M1216 213q96 0 96 88l2 4v224q0 98 -139 98q-56 0 -123 -15q-53 -13 -108 -34l-74 -51l-74 211l744 602l102 -283l-346 -238q157 -9 241 -89q95 -89 95 -259v-158q-7 -307 -390 -313h-716q-410 0 -410 324v239h319v-262q0 -88 97 -88h684zM801 1007l646 518l48 -137
l-695 -564z" />
    <glyph glyph-name="uniFB93" unicode="&#x6af;" horiz-adv-x="1841" arabic-form="final" 
d="M1634 471q0 170 -95 259q-84 80 -241 89l346 238l-102 283l-744 -602l74 -211l74 51q55 21 108 34q67 15 123 15q139 0 139 -98v-291h-2q-34 -25 -80 -25h-702q-97 0 -97 88v264h-319v-241q0 -324 410 -324h731q44 12 86 25q65 20 114 55q43 -36 106 -55q78 -25 185 -25
h101v213h-105q-110 0 -110 96v162zM801 1007l646 518l48 -137l-695 -564z" />
    <glyph glyph-name="uniFB94" unicode="&#x6af;" horiz-adv-x="985" arabic-form="initial" 
d="M130 526l74 52q55 21 108 33q67 16 123 16q139 0 139 -99v-315h-608v-213h926v471q0 170 -95 259q-84 79 -241 89l346 238l-102 282l-744 -602zM64 1007l646 518l48 -137l-695 -564z" />
    <glyph glyph-name="uniFB95" unicode="&#x6af;" horiz-adv-x="985" arabic-form="medial" 
d="M-34 0h1032v213h-106v258q0 170 -95 259q-84 79 -241 89l346 238l-102 282l-744 -602l74 -211l74 52q55 21 108 33q67 16 123 16q139 0 139 -99v-315h-608v-213zM64 1007l646 518l48 -137l-695 -564z" />
    <glyph glyph-name="uni0644" unicode="&#x644;" horiz-adv-x="1165" arabic-form="isolated" 
d="M1072 -16q0 -167 -149 -271q-137 -95 -328 -95q-190 0 -328 95q-151 104 -151 269v581h319v-577q0 -57 58 -91q47 -28 102 -28q56 0 103 29q55 34 55 90v1335h319v-1337z" />
    <glyph glyph-name="uniFEDE" unicode="&#x644;" horiz-adv-x="1300" arabic-form="final" 
d="M1310 213h-131q-87 0 -107 61v1045h-319v-1333q0 -56 -55 -90q-47 -29 -103 -29q-55 0 -102 28q-58 34 -58 91v579h-319v-583q0 -165 151 -269q138 -95 328 -95q191 0 328 95q149 104 149 271v22q50 -6 109 -6h129v213z" />
    <glyph glyph-name="uniFEDF" unicode="&#x644;" horiz-adv-x="677" arabic-form="initial" 
d="M-8 0h188q406 0 406 324v995h-320v-1018q0 -88 -94 -88h-180v-213z" />
    <glyph glyph-name="uniFEE0" unicode="&#x644;" horiz-adv-x="788" arabic-form="medial" 
d="M797 0v213h-111q-110 0 -110 96v1010h-320v-1081q-31 -25 -80 -25h-184v-213h98q111 0 195 25q65 20 115 55q44 -36 107 -55q78 -25 183 -25h107z" />
    <glyph glyph-name="uni0645" unicode="&#x645;" horiz-adv-x="1445" arabic-form="isolated" 
d="M1015 665q-25 76 -86 76q-60 0 -84 -76q-20 -62 -20 -190q0 -260 104 -260q107 0 107 260q0 128 -21 190zM565 213q-58 106 -58 258q0 208 111 335q114 132 311 132q200 0 314 -132q110 -127 110 -335q0 -209 -111 -338q-115 -133 -313 -133h-397q-97 0 -97 -88v-297
h-319v275q0 323 358 323h91z" />
    <glyph glyph-name="uniFEE2" unicode="&#x645;" horiz-adv-x="1462" arabic-form="final" 
d="M1067 71q-25 -73 -87 -73q-106 0 -106 260q0 128 20 190q25 76 86 76q62 0 87 -76q20 -62 20 -190q0 -127 -20 -187zM1470 213h-68q2 10 2 20v21q0 208 -110 336q-114 133 -314 133q-197 0 -311 -133q-111 -128 -111 -336v-41h-59q-383 0 -383 -323v-275h319v297
q0 88 97 88h80q110 -217 368 -217q260 0 367 217h123v213z" />
    <glyph glyph-name="uniFEE3" unicode="&#x645;" horiz-adv-x="1138" arabic-form="initial" 
d="M-20 0h643q198 0 313 133q111 129 111 338q0 208 -110 335q-114 132 -314 132q-197 0 -311 -132q-111 -127 -111 -335q0 -150 55 -258h-276v-213zM623 215q-106 0 -106 260q0 128 20 190q25 76 86 76t86 -76q21 -62 21 -190q0 -260 -107 -260z" />
    <glyph glyph-name="uniFEE4" unicode="&#x645;" horiz-adv-x="1056" arabic-form="medial" 
d="M-20 0h199q110 -217 368 -217q260 0 367 217h164v213h-111q2 10 2 20v21q0 208 -109 336q-115 133 -313 133t-312 -133q-110 -128 -110 -336v-41h-145v-213zM547 -2q-106 0 -106 260q0 128 20 190q25 76 86 76q60 0 85 -76q20 -62 20 -190q0 -260 -105 -260z" />
    <glyph glyph-name="uni0646" unicode="&#x646;" horiz-adv-x="1165" arabic-form="isolated" 
d="M1072 -16q0 -167 -149 -271q-137 -95 -328 -95q-190 0 -328 95q-151 104 -151 269v940h319v-936q0 -57 58 -91q47 -28 102 -28q56 0 103 29q55 34 55 90v936h319v-938zM608 1085q-134 0 -134 115q0 119 134 119q135 0 135 -119q0 -115 -135 -115z" />
    <glyph glyph-name="uniFEE6" unicode="&#x646;" horiz-adv-x="1300" arabic-form="final" 
d="M1310 213h-131q-87 0 -107 61v648h-319v-936q0 -56 -53 -90q-45 -29 -101 -29t-105 28q-59 34 -59 91v936h-319v-940q0 -165 151 -269q138 -95 328 -95q191 0 328 95q149 104 149 271v22q50 -6 109 -6h129v213zM608 1085q-134 0 -134 115q0 119 134 119q135 0 135 -119
q0 -115 -135 -115z" />
    <glyph glyph-name="uniFEE7" unicode="&#x646;" horiz-adv-x="677" arabic-form="initial" 
d="M-8 0h188q406 0 406 324v598h-320v-621q0 -88 -94 -88h-180v-213zM418 1085q-133 0 -133 115q0 119 133 119q137 0 137 -119q0 -115 -137 -115z" />
    <glyph glyph-name="uniFEE8" unicode="&#x646;" horiz-adv-x="788" arabic-form="medial" 
d="M797 0v213h-111q-110 0 -110 96v613h-320v-684q-31 -25 -80 -25h-184v-213h98q111 0 195 25q65 20 115 55q44 -36 107 -55q78 -25 183 -25h107zM410 1085q-133 0 -133 115q0 119 133 119q135 0 135 -119q0 -115 -135 -115z" />
    <glyph glyph-name="uni0648" unicode="&#x648;" horiz-adv-x="1044" arabic-form="isolated" 
d="M956 2q0 -200 -140 -299q-119 -85 -319 -85q-192 0 -328 73l78 205q99 -53 225 -53q69 0 120 35q54 39 54 100v45q-45 -23 -147 -23q-167 0 -273 112q-110 117 -110 314q0 496 492 496q233 0 348 -68v-852zM646 729q-27 10 -59 10q-154 0 -154 -290q0 -269 150 -269
q33 0 63 10v539z" />
    <glyph glyph-name="uniFEEE" unicode="&#x648;" horiz-adv-x="1187" arabic-form="final" 
d="M646 213l-21 -1q-11 0 -21 -1h-21q-150 0 -150 258q0 270 154 270q32 0 59 -10v-516zM956 854q-115 68 -348 68q-492 0 -492 -496q0 -197 110 -314q106 -112 273 -112h147v-22q0 -61 -54 -100q-51 -35 -120 -35q-126 0 -225 53l-78 -205q136 -73 328 -73q198 0 317 84
q140 99 140 298h241v213h-239v641z" />
    <glyph glyph-name="uni0647" unicode="&#x647;" horiz-adv-x="962" arabic-form="isolated" 
d="M793 117q-114 -133 -312 -133t-312 133q-110 127 -110 336q0 208 110 335q114 134 312 134t312 -134q110 -127 110 -335q0 -209 -110 -336zM565 648q-24 75 -84 75q-61 0 -86 -75q-21 -61 -21 -189q0 -260 107 -260q104 0 104 260q0 127 -20 189z" />
    <glyph glyph-name="uniFEEA" unicode="&#x647;" horiz-adv-x="1161" arabic-form="final" 
d="M1169 0v213h-213v643q-113 70 -348 70q-492 0 -492 -496q0 -197 110 -316q106 -114 273 -114h670zM648 213h-55q-85 0 -120 47q-40 53 -40 193q0 288 154 288q38 0 59 -8z" />
    <glyph glyph-name="uniFEEB" unicode="&#x647;" horiz-adv-x="1316" arabic-form="initial" 
d="M-20 0h1243v723q0 184 -108 272q-97 78 -275 78q-118 0 -233 -25q-80 -17 -150 -44l66 -181q122 56 243 56q140 0 140 -99v-567h-123q10 61 10 119q0 178 -83 286q-87 113 -238 113t-238 -113q-84 -108 -84 -286q0 -73 10 -119h-180v-213zM545 213h-147q-6 35 -6 125
q0 225 80 225q81 0 81 -225q0 -79 -8 -125z" />
    <glyph glyph-name="uniFEEC" unicode="&#x647;" horiz-adv-x="1351" arabic-form="medial" 
d="M-20 0h1407v213h-160v510q0 184 -109 272q-98 78 -276 78q-118 0 -232 -25q-44 -9 -87 -22q-32 -10 -64 -22l66 -181q122 56 246 56q139 0 139 -99v-567h-125q12 74 12 119q0 178 -84 286q-88 113 -239 113t-238 -113q-84 -108 -84 -286q0 -58 10 -119h-182v-213z
M549 213h-149q-6 52 -6 125q0 225 80 225q84 0 84 -225q0 -79 -9 -125z" />
    <glyph glyph-name="uni0629" unicode="&#x629;" horiz-adv-x="962" arabic-form="isolated" 
d="M793 117q-114 -133 -312 -133t-312 133q-110 127 -110 336q0 208 110 335q114 134 312 134t312 -134q110 -127 110 -335q0 -209 -110 -336zM565 648q-24 75 -84 75q-61 0 -86 -75q-21 -61 -21 -189q0 -260 107 -260q104 0 104 260q0 127 -20 189zM101 1142h114
q-30 25 -30 86q0 73 49 117q46 41 108 41q67 0 89 -25l-23 -55q-17 10 -35 10q-72 0 -72 -88q0 -86 72 -86h20q11 1 23 2l33 -74h-318z" />
    <glyph glyph-name="uniFBA5" unicode="&#x6c0;" horiz-adv-x="1161" arabic-form="final" 
d="M1169 0v213h-213v643q-113 70 -348 70q-492 0 -492 -496q0 -197 110 -316q106 -114 273 -114h670zM648 213h-55q-85 0 -120 47q-40 53 -40 193q0 288 154 288q38 0 59 -8zM271 1142h114q-30 25 -30 86q0 73 49 117q46 41 108 41q67 0 89 -25l-23 -55q-17 10 -35 10
q-72 0 -72 -88q0 -86 72 -86h20q11 1 23 2l33 -74h-318z" />
    <glyph glyph-name="uni064A" unicode="&#x64a;" horiz-adv-x="1615" arabic-form="isolated" 
d="M1132 383q-205 0 -322 111q-112 106 -112 282q0 173 113 279q118 110 321 110q267 0 381 -180l-277 -119q-17 135 -104 135q-63 0 -88 -64q-21 -51 -21 -159q0 -180 107 -180l28 -2h330q23 -56 31 -124l3 -51l1 -40q0 -194 -123 -293q-111 -88 -305 -88h-541
q-185 0 -308 95q-130 102 -130 270v557h319v-582q0 -58 51 -91q43 -28 97 -28h463q168 0 168 162h-82z" />
    <glyph glyph-name="uniFBFD" unicode="&#x6cc;" horiz-adv-x="1642" arabic-form="final" 
d="M116 539h319v-582q0 -57 51 -90q43 -28 97 -28h463q168 0 168 161h-315v213h763v-213h-139v-2q0 -194 -123 -292q-111 -88 -305 -88h-541q-185 0 -308 95q-130 101 -130 269v557z" />
    <glyph glyph-name="uniFBFE" unicode="&#x6cc;" horiz-adv-x="675" arabic-form="initial" 
d="M-7 0h188q405 0 405 324v598h-319v-621q0 -88 -94 -88h-180v-213zM463 -385q-133 0 -133 117t133 117q136 0 136 -117t-136 -117zM109 -385q-131 0 -131 117t131 117q137 0 137 -117t-137 -117z" />
    <glyph glyph-name="uniFBFF" unicode="&#x6cc;" horiz-adv-x="788" arabic-form="medial" 
d="M797 0v213h-111q-110 0 -110 96v613h-320v-684q-31 -25 -80 -25h-184v-213h98q111 0 195 25q65 20 114 55q45 -36 107 -55q78 -25 184 -25h107zM440 -378q-133 0 -133 114q0 119 133 119q136 0 136 -119q0 -114 -136 -114zM88 -378q-133 0 -133 114q0 119 133 119
q135 0 135 -119q0 -114 -135 -114z" />
    <glyph glyph-name="uni0649" unicode="&#x649;" horiz-adv-x="1615" arabic-form="isolated" 
d="M1132 383q-205 0 -322 111q-112 106 -112 282q0 173 113 279q118 110 321 110q267 0 381 -180l-277 -119q-17 135 -104 135q-63 0 -88 -64q-21 -51 -21 -159q0 -180 107 -180l28 -2h330q23 -56 31 -124l3 -51l1 -40q0 -194 -123 -293q-111 -88 -305 -88h-541
q-185 0 -308 95q-130 102 -130 270v557h319v-582q0 -58 51 -91q43 -28 97 -28h463q168 0 168 162h-82z" />
    <glyph glyph-name="uniFEF0" unicode="&#x649;" horiz-adv-x="1642" arabic-form="final" 
d="M116 539h319v-582q0 -57 51 -90q43 -28 97 -28h463q168 0 168 161h-315v213h763v-213h-139v-2q0 -194 -123 -292q-111 -88 -305 -88h-541q-185 0 -308 95q-130 101 -130 269v557z" />
    <glyph glyph-name="glyph1" 
 />
    <glyph glyph-name="glyph2" horiz-adv-x="434" 
 />
    <glyph glyph-name="space" unicode=" " horiz-adv-x="434" 
 />
    <glyph glyph-name="exclam" unicode="!" horiz-adv-x="585" 
d="M429 432h-243l-70 723h383zM432 35q-51 -51 -123 -51q-177 0 -177 176q0 72 52 123q51 51 125 51q72 0 123 -51t51 -123q0 -74 -51 -125z" />
    <glyph glyph-name="percent" unicode="%" horiz-adv-x="839" 
d="M247 -53l-164 67l504 1196l166 -67zM243 1108q-135 0 -135 -115q0 -119 135 -119q133 0 133 119q0 115 -133 115zM620 297q-134 0 -134 -115q0 -119 134 -119q135 0 135 119q0 115 -135 115z" />
    <glyph glyph-name="parenleft" unicode="(" horiz-adv-x="698" 
d="M523 -385q-444 433 -444 866q0 429 444 862l148 -79q-124 -175 -190 -359q-72 -205 -72 -424q0 -221 72 -426q66 -184 190 -358z" />
    <glyph glyph-name="parenright" unicode=")" horiz-adv-x="698" 
d="M173 -385l-147 82q125 175 190 358q74 206 74 426q0 218 -74 424q-65 183 -190 359l147 79q447 -435 447 -862q0 -431 -447 -866z" />
    <glyph glyph-name="asterisk" unicode="*" horiz-adv-x="1305" 
d="M1211 881l-75 186l-339 -88v283h-246l4 -279l-340 87l-79 -186l344 -89l-211 -229l195 -112l208 225l211 -225l201 112l-212 229z" />
    <glyph glyph-name="plus" unicode="+" horiz-adv-x="966" 
d="M584 453v-250h-201v250h-248v202h248v250h201v-250h249v-202h-249z" />
    <glyph glyph-name="comma" unicode="," horiz-adv-x="595" 
d="M335 502h168l-147 -424q-60 -78 -166 -78q-105 0 -123 78z" />
    <glyph glyph-name="hyphen" unicode="-" horiz-adv-x="966" 
d="M135 453v202h698v-202h-698z" />
    <glyph glyph-name="period" unicode="." horiz-adv-x="454" 
d="M227 0q-160 0 -160 162q0 65 47 112q47 48 113 48q65 0 113 -48q46 -47 46 -112q0 -162 -159 -162z" />
    <glyph glyph-name="slash" unicode="/" horiz-adv-x="993" 
d="M194 -393l791 1640l-193 94l-788 -1640z" />
    <glyph glyph-name="zero" unicode="0" horiz-adv-x="616" 
d="M481 425l-168 -329l-174 312l164 321z" />
    <glyph glyph-name="zero" unicode="&#x6f0;" horiz-adv-x="616" 
d="M481 425l-168 -329l-174 312l164 321z" />
    <glyph glyph-name="zero" unicode="&#x660;" horiz-adv-x="616" 
d="M481 425l-168 -329l-174 312l164 321z" />
    <glyph glyph-name="one" unicode="1" horiz-adv-x="604" 
d="M462 1087v-1087h-319v1190z" />
    <glyph glyph-name="one" unicode="&#x6f1;" horiz-adv-x="604" 
d="M462 1087v-1087h-319v1190z" />
    <glyph glyph-name="one" unicode="&#x661;" horiz-adv-x="604" 
d="M462 1087v-1087h-319v1190z" />
    <glyph glyph-name="two" unicode="2" horiz-adv-x="1022" 
d="M932 645v393l-319 117v-414q0 -96 -109 -96q-15 0 -50 22q-1 0 -2 1v487h-317v-1155h317v467q1 0 2 -1q48 -20 136 -20q144 0 229.5 42t112.5 157z" />
    <glyph glyph-name="two" unicode="&#x6f2;" horiz-adv-x="1022" 
d="M932 645v393l-319 117v-414q0 -96 -109 -96q-15 0 -50 22q-1 0 -2 1v487h-317v-1155h317v467q1 0 2 -1q48 -20 136 -20q144 0 229.5 42t112.5 157z" />
    <glyph glyph-name="two" unicode="&#x662;" horiz-adv-x="1022" 
d="M932 645v393l-319 117v-414q0 -96 -109 -96q-15 0 -50 22q-1 0 -2 1v487h-317v-1155h317v467q1 0 2 -1q48 -20 136 -20q144 0 229.5 42t112.5 157z" />
    <glyph glyph-name="three" unicode="3" horiz-adv-x="1492" 
d="M926.5 456q58.5 -18 145.5 -19q152 9 238 77l21 20q71 73 71 207v297l-319 117v-414q0 -96 -109 -96h-42v393l-319 117v-414q0 -96 -109 -96q-15 0 -50 22q-1 0 -2 1v487h-317v-1155h317v467q1 0 2 -1q48 -20 136 -20q164 0 234 63q44 -35 102.5 -53z" />
    <glyph glyph-name="three" unicode="&#x6f3;" horiz-adv-x="1492" 
d="M926.5 456q58.5 -18 145.5 -19q152 9 238 77l21 20q71 73 71 207v297l-319 117v-414q0 -96 -109 -96h-42v393l-319 117v-414q0 -96 -109 -96q-15 0 -50 22q-1 0 -2 1v487h-317v-1155h317v467q1 0 2 -1q48 -20 136 -20q164 0 234 63q44 -35 102.5 -53z" />
    <glyph glyph-name="three" unicode="&#x663;" horiz-adv-x="1492" 
d="M926.5 456q58.5 -18 145.5 -19q152 9 238 77l21 20q71 73 71 207v297l-319 117v-414q0 -96 -109 -96h-42v393l-319 117v-414q0 -96 -109 -96q-15 0 -50 22q-1 0 -2 1v487h-317v-1155h317v467q1 0 2 -1q48 -20 136 -20q164 0 234 63q44 -35 102.5 -53z" />
    <glyph glyph-name="four" unicode="4" horiz-adv-x="917" 
d="M741 1157q-27 3 -61 4h-58q-471 0 -471 -299q0 -75 53 -133q42 -45 113 -76v-4q-103 -39 -153 -98q-60 -70 -60 -182q0 -167 129 -270q130 -103 340 -103q161 0 240 18v232q-44 -14 -92 -18q-20 -2 -45 -2l-46 -1q-182 0 -182 146q0 145 221 145q35 0 56 -2v166
q-256 0 -256 147q0 105 141 105h131v225z" />
    <glyph glyph-name="four" unicode="&#x6f4;" horiz-adv-x="917" 
d="M741 1157q-27 3 -61 4h-58q-471 0 -471 -299q0 -75 53 -133q42 -45 113 -76v-4q-103 -39 -153 -98q-60 -70 -60 -182q0 -167 129 -270q130 -103 340 -103q161 0 240 18v232q-44 -14 -92 -18q-20 -2 -45 -2l-46 -1q-182 0 -182 146q0 145 221 145q35 0 56 -2v166
q-256 0 -256 147q0 105 141 105h131v225z" />
    <glyph glyph-name="four" unicode="&#x664;" horiz-adv-x="917" 
d="M741 1157q-27 3 -61 4h-58q-471 0 -471 -299q0 -75 53 -133q42 -45 113 -76v-4q-103 -39 -153 -98q-60 -70 -60 -182q0 -167 129 -270q130 -103 340 -103q161 0 240 18v232q-44 -14 -92 -18q-20 -2 -45 -2l-46 -1q-182 0 -182 146q0 145 221 145q35 0 56 -2v166
q-256 0 -256 147q0 105 141 105h131v225z" />
    <glyph glyph-name="five" unicode="5" horiz-adv-x="1064" 
d="M844 150q110 128 110 337q0 122 -57 232q-46 91 -129 170q-64 61 -142 109q-56 35 -94 49q-38 -14 -95 -49q-78 -48 -141 -109q-83 -79 -130 -170q-56 -110 -56 -232q0 -209 110 -337q114 -134 312 -134t312 134zM559 739q20 -18 35 -45q44 -77 44 -202q0 -261 -106 -261
q-107 0 -107 261q0 125 44 202q16 27 36 45q14 14 27 19q12 -5 27 -19z" />
    <glyph glyph-name="five" unicode="&#x6f5;" horiz-adv-x="1064" 
d="M844 150q110 128 110 337q0 122 -57 232q-46 91 -129 170q-64 61 -142 109q-56 35 -94 49q-38 -14 -95 -49q-78 -48 -141 -109q-83 -79 -130 -170q-56 -110 -56 -232q0 -209 110 -337q114 -134 312 -134t312 134zM559 739q20 -18 35 -45q44 -77 44 -202q0 -261 -106 -261
q-107 0 -107 261q0 125 44 202q16 27 36 45q14 14 27 19q12 -5 27 -19z" />
    <glyph glyph-name="five" unicode="&#x665;" horiz-adv-x="1064" 
d="M844 150q110 128 110 337q0 122 -57 232q-46 91 -129 170q-64 61 -142 109q-56 35 -94 49q-38 -14 -95 -49q-78 -48 -141 -109q-83 -79 -130 -170q-56 -110 -56 -232q0 -209 110 -337q114 -134 312 -134t312 134zM559 739q20 -18 35 -45q44 -77 44 -202q0 -261 -106 -261
q-107 0 -107 261q0 125 44 202q16 27 36 45q14 14 27 19q12 -5 27 -19z" />
    <glyph glyph-name="six" unicode="6" horiz-adv-x="997" 
d="M505 0h320v840q0 60 -17 112q-20 62 -63 107q-49 53 -127 81q-87 31 -209 31q-113 0 -212 -23q-76 -18 -136 -48l74 -201q42 20 83 30q56 13 126 13q161 0 161 -145v-797z" />
    <glyph glyph-name="six" unicode="&#x6f6;" horiz-adv-x="997" 
d="M505 0h320v840q0 60 -17 112q-20 62 -63 107q-49 53 -127 81q-87 31 -209 31q-113 0 -212 -23q-76 -18 -136 -48l74 -201q42 20 83 30q56 13 126 13q161 0 161 -145v-797z" />
    <glyph glyph-name="six" unicode="&#x666;" horiz-adv-x="997" 
d="M505 0h320v840q0 60 -17 112q-20 62 -63 107q-49 53 -127 81q-87 31 -209 31q-113 0 -212 -23q-76 -18 -136 -48l74 -201q42 20 83 30q56 13 126 13q161 0 161 -145v-797z" />
    <glyph glyph-name="seven" unicode="7" horiz-adv-x="1021" 
d="M368 0l-317 1096l274 88l185 -750l184 750l277 -88l-320 -1096h-283z" />
    <glyph glyph-name="seven" unicode="&#x6f7;" horiz-adv-x="1021" 
d="M368 0l-317 1096l274 88l185 -750l184 750l277 -88l-320 -1096h-283z" />
    <glyph glyph-name="seven" unicode="&#x667;" horiz-adv-x="1021" 
d="M368 0l-317 1096l274 88l185 -750l184 750l277 -88l-320 -1096h-283z" />
    <glyph glyph-name="eight" unicode="8" horiz-adv-x="1021" 
d="M368 1155l-317 -1096l274 -87l185 751l184 -751l277 87l-320 1096h-283z" />
    <glyph glyph-name="eight" unicode="&#x6f8;" horiz-adv-x="1021" 
d="M368 1155l-317 -1096l274 -87l185 751l184 -751l277 87l-320 1096h-283z" />
    <glyph glyph-name="eight" unicode="&#x668;" horiz-adv-x="1021" 
d="M368 1155l-317 -1096l274 -87l185 751l184 -751l277 87l-320 1096h-283z" />
    <glyph glyph-name="nine" unicode="9" horiz-adv-x="1048" 
d="M919 0v715q0 95 -15 165q-19 86 -61 146q-103 143 -354 143q-189 0 -300 -102q-110 -103 -110 -276q0 -174 123 -272q108 -85 266 -85q34 0 63 2l41 5l29 5v-446h318zM523 602q-165 0 -165 180q0 79 33 133q36 60 98 60q68 0 94 -77q18 -54 18 -161q0 -33 -4 -67
q-2 -22 -8 -58q-27 -10 -66 -10z" />
    <glyph glyph-name="nine" unicode="&#x6f9;" horiz-adv-x="1048" 
d="M919 0v715q0 95 -15 165q-19 86 -61 146q-103 143 -354 143q-189 0 -300 -102q-110 -103 -110 -276q0 -174 123 -272q108 -85 266 -85q34 0 63 2l41 5l29 5v-446h318zM523 602q-165 0 -165 180q0 79 33 133q36 60 98 60q68 0 94 -77q18 -54 18 -161q0 -33 -4 -67
q-2 -22 -8 -58q-27 -10 -66 -10z" />
    <glyph glyph-name="nine" unicode="&#x669;" horiz-adv-x="1048" 
d="M919 0v715q0 95 -15 165q-19 86 -61 146q-103 143 -354 143q-189 0 -300 -102q-110 -103 -110 -276q0 -174 123 -272q108 -85 266 -85q34 0 63 2l41 5l29 5v-446h318zM523 602q-165 0 -165 180q0 79 33 133q36 60 98 60q68 0 94 -77q18 -54 18 -161q0 -33 -4 -67
q-2 -22 -8 -58q-27 -10 -66 -10z" />
    <glyph glyph-name="colon" unicode=":" horiz-adv-x="497" 
d="M227 0q-160 0 -160 162q0 65 47 112q47 48 113 48q65 0 113 -48q46 -47 46 -112q0 -162 -159 -162zM227 469q-160 0 -160 160q0 159 160 159q159 0 159 -159q0 -160 -159 -160z" />
    <glyph glyph-name="equal" unicode="=" horiz-adv-x="976" 
d="M139 641v203h698v-203h-698zM139 266v201h698v-201h-698z" />
    <glyph glyph-name="bracketleft" unicode="[" horiz-adv-x="632" 
d="M96 -360v1679h485v-178h-206v-1323h206v-178h-485z" />
    <glyph glyph-name="bracketright" unicode="]" horiz-adv-x="632" 
d="M51 -360v178h209v1323h-209v178h485v-1679h-485z" />
    <glyph glyph-name="braceleft" unicode="{" horiz-adv-x="864" 
d="M767 -236q0 10 -2 15q-297 3 -297 162l2 33v413q0 110 -147 205q147 114 147 203v413q0 121 60 162q59 41 233 41v19q0 38 -4 59q-244 0 -374 -66q-140 -71 -140 -215v-413q0 -134 -168 -203h-4q172 -112 172 -205v-413q0 -262 360 -262h160q2 10 2 35v17z" />
    <glyph glyph-name="braceright" unicode="}" horiz-adv-x="864" 
d="M71 -236q1 10 2 15q167 2 230 42q65 41 65 153v413q0 110 147 205q-147 114 -147 203v413q0 121 -60 162q-59 41 -233 41v19q0 38 4 59q244 0 374 -66q140 -71 140 -215v-413q0 -132 168 -203h4q-172 -112 -172 -205v-413q0 -142 -105 -200q-115 -62 -415 -62
q-2 10 -2 35v17z" />
    <glyph glyph-name="guillemotleft" unicode="&#xab;" horiz-adv-x="946" 
d="M692 147l-250 414l250 414l174 -101l-190 -313l190 -313zM297 147l-246 414l246 414l174 -98l-187 -316l187 -313z" />
    <glyph glyph-name="guillemotright" unicode="&#xbb;" horiz-adv-x="946" 
d="M648 147l-176 101l191 313l-191 316l176 98l248 -414zM255 147l-176 101l190 313l-190 313l176 101l246 -414z" />
    <glyph glyph-name="multiply" unicode="&#xd7;" horiz-adv-x="985" 
d="M715 188l-224 230l-223 -228l-133 134l223 231l-223 231l133 134l223 -230l222 230l137 -134l-223 -231l223 -233z" />
    <glyph glyph-name="divide" unicode="&#xf7;" horiz-adv-x="966" 
d="M483 705q-123 0 -123 122q0 123 123 123t123 -123q0 -122 -123 -122zM135 481v146h698v-146h-698zM483 156q-123 0 -123 123q0 122 123 122t123 -122q0 -123 -123 -123z" />
    <glyph glyph-name="uni200C" unicode="&#x200c;" horiz-adv-x="32" 
 />
    <glyph glyph-name="uni200D" unicode="&#x200d;" horiz-adv-x="32" 
 />
    <glyph glyph-name="uni200E" unicode="&#x200e;" horiz-adv-x="32" 
d="M213 1132l-95 -96l-24 20l63 62h-125v-1118h-32v1148h153l-59 58l24 22z" />
    <glyph glyph-name="uni200F" unicode="&#x200f;" horiz-adv-x="32" 
d="M32 0h-32v1118h-124l60 -62l-20 -20l-99 96l99 96l20 -22l-58 -58h154v-1148z" />
    <glyph glyph-name="quoteleft" unicode="&#x2018;" horiz-adv-x="491" 
d="M467 1486q-89 -59 -154 -145q-76 -101 -76 -193q0 -55 32 -98q39 47 90 47q102 0 102 -100q0 -59 -48 -92q-43 -30 -104 -30q-82 0 -133 50.5t-51 132.5q0 141 108 283q97 127 234 200v-55z" />
    <glyph glyph-name="quoteright" unicode="&#x2019;" horiz-adv-x="491" 
d="M444 1353q0 -143 -107 -281q-91 -118 -232 -200v56q228 162 228 338q0 62 -33 101q-33 -49 -95 -49q-41 0 -69.5 28t-28.5 69q0 58 49 93q43 31 104 31q86 0 135 -50t49 -136z" />
    <glyph glyph-name="quotedblleft" unicode="&#x201c;" horiz-adv-x="650" 
d="M572 1146q-13 -6 -41 -26q-52 -51 -52 -95q82 -22 82 -112q0 -45 -31.5 -78t-76.5 -33q-52 0 -84 42q-29 38 -29 92q0 201 203 359q0 -83 1 -93q4 -40 28 -56zM302 1146q-13 -6 -41 -26q-52 -51 -52 -95q82 -22 82 -112q0 -45 -31.5 -78t-76.5 -33q-52 0 -84 42
q-29 38 -29 92q0 201 203 359q0 -83 1 -93q4 -40 28 -56z" />
    <glyph glyph-name="quotedblright" unicode="&#x201d;" horiz-adv-x="650" 
d="M580 1151q0 -201 -203 -359q0 83 -1 93q-4 40 -28 56q13 6 41 26q52 51 52 95q-82 22 -82 112q0 46 31 78.5t77 32.5q54 0 85 -41q28 -37 28 -93zM310 1151q0 -201 -203 -359q0 83 -1 93q-4 40 -28 56q13 6 41 26q52 51 52 95q-82 22 -82 112q0 46 31 78.5t77 32.5
q54 0 85 -41q28 -37 28 -93z" />
    <glyph glyph-name="guilsinglleft" unicode="&#x2039;" horiz-adv-x="985" 
d="M405 477l479 479h-326l-479 -479l479 -477h326z" />
    <glyph glyph-name="guilsinglright" unicode="&#x203a;" horiz-adv-x="985" 
d="M556 477l-479 479h326l479 -479l-479 -477h-326z" />
    <glyph glyph-name="uni060C" unicode="&#x60c;" horiz-adv-x="444" 
d="M441 508q-107 -21 -141 -107q-18 -46 -18 -147h148v-254h-263v219q0 311 274 333v-44z" />
    <glyph glyph-name="uni061B" unicode="&#x61b;" horiz-adv-x="579" 
d="M350 973h168l-150 -426q-58 -76 -166 -76q-105 0 -123 76zM227 0q-160 0 -160 162q0 65 47 112q47 48 113 48q65 0 113 -48q46 -47 46 -112q0 -162 -159 -162z" />
    <glyph glyph-name="uni061F" unicode="&#x61f;" horiz-adv-x="892" 
d="M204 685q67 -61 164 -93l18 -160h242l29 250q-205 40 -205 160q0 114 149 114q44 0 95 -15q36 -11 69 -28l80 191q-124 67 -311 67q-418 0 -418 -294q0 -110 88 -192zM382 35q51 -51 123 -51q73 0 124 51q52 51 52 125q0 72 -52 123q-51 51 -124 51q-72 0 -123 -51
t-51 -123q0 -74 51 -125z" />
    <glyph glyph-name="uni0640" unicode="&#x640;" horiz-adv-x="391" 
d="M412 213h-446v-213h446v213z" />
    <glyph glyph-name="uni064B" unicode="&#x64b;" horiz-adv-x="1" 
d="M442 1783l-439 -109l-24 91l441 111zM447 1618l-438 -109l-25 90l441 112z" />
    <glyph glyph-name="uni064C" unicode="&#x64c;" 
d="M474 1752q0 -125 -152 -161l-322 -76l-30 82l30 14q49 22 49 67q0 27 -20 27q-17 0 -45 -21l-36 52q43 58 93 57q82 -2 82 -83q0 -45 -25 -84l87 33q-24 41 -24 90q0 62 54 106q48 39 95 39q62 0 111 -40q53 -42 53 -102zM386 1752q0 49 -70 49q-24 0 -45 -15.5
t-21 -39.5q0 -25 21 -44.5t47 -17.5q68 5 68 68z" />
    <glyph glyph-name="uni064D" unicode="&#x64d;" 
d="M486 -505l-439 -109l-25 89l442 112zM490 -670l-438 -109l-24 90l440 112z" />
    <glyph glyph-name="uni064E" unicode="&#x64e;" 
d="M445 1922l-439 -109l-25 90l442 112z" />
    <glyph glyph-name="uni064F" unicode="&#x64f;" horiz-adv-x="1" 
d="M369 1834q0 49 -72 49q-24 0 -45 -15q-23 -18 -23 -41q0 -27 22.5 -45t48.5 -16q69 6 69 68zM167 1745q-25 40 -25 84q0 62 55 108q48 40 96 40q61 0 110 -40q52 -43 52 -103q0 -125 -152 -160l-313 -74l-22 85q76 22 199 60z" />
    <glyph glyph-name="uni0650" unicode="&#x650;" 
d="M472 -650l-439 -109l-23 90l440 112z" />
    <glyph glyph-name="uni0651" unicode="&#x651;" horiz-adv-x="1" 
d="M461 1733q0 -53 -29 -90q-30 -39 -82 -39q-84 0 -128 62q-48 -114 -150 -114q-112 0 -112 128q0 57 50 161l69 -36q-29 -75 -29 -89q0 -55 38 -55q55 0 72 57q10 33 7 104q27 15 89 47q0 -156 72 -156q38 0 35 47q-1 27 -15 49q-7 11 -26 40l71 52q29 -38 50 -96
q18 -48 18 -72z" />
    <glyph glyph-name="uni0652" unicode="&#x652;" 
d="M398 1698q0 -78 -54 -132t-131 -54q-76 0 -131 55t-55 131q0 73 56.5 129t129.5 56q72 0 128.5 -56t56.5 -129zM292 1700q0 33 -24.5 55t-58.5 22q-29 0 -52.5 -25t-23.5 -54q0 -80 80 -80q79 0 79 82z" />
    <glyph glyph-name="uniE820" unicode="&#xe820;" 
d="M478 1613l-439 -109l-25 90l442 112z" />
    <glyph glyph-name="uniE821" unicode="&#xe821;" 
d="M408 1515q0 49 -72 49q-24 0 -45 -15q-23 -18 -23 -41q0 -27 22.5 -45t48.5 -16q69 6 69 68zM206 1426q-25 40 -25 84q0 62 55 108q48 40 96 40q61 0 110 -40q52 -43 52 -103q0 -125 -152 -160l-313 -74l-22 85q76 22 199 60z" />
    <glyph glyph-name="uniE822" unicode="&#xe822;" 
d="M447 1398q0 -78 -54 -132t-131 -54q-76 0 -131 55t-55 131q0 73 56.5 129t129.5 56q72 0 128.5 -56t56.5 -129zM341 1400q0 33 -24.5 55t-58.5 22q-29 0 -52.5 -25t-23.5 -54q0 -80 80 -80q79 0 79 82z" />
    <glyph glyph-name="uniE823" unicode="&#xe823;" 
d="M480 1473l-439 -109l-24 91l441 111zM485 1308l-438 -109l-25 90l441 112z" />
    <glyph glyph-name="uniE824" unicode="&#xe824;" horiz-adv-x="1" 
d="M514 1436q0 -125 -152 -161l-322 -76l-30 82l30 14q49 22 49 67q0 27 -20 27q-17 0 -45 -21l-36 52q43 58 93 57q82 -2 82 -83q0 -45 -25 -84l87 33q-24 41 -24 90q0 62 54 106q48 39 95 39q62 0 111 -40q53 -42 53 -102zM426 1436q0 49 -70 49q-24 0 -45 -15.5
t-21 -39.5q0 -25 21 -44.5t47 -17.5q68 5 68 68z" />
    <glyph glyph-name="uniE825" unicode="&#xe825;" 
d="M510 1439q0 -53 -29 -90q-30 -39 -82 -39q-84 0 -128 62q-48 -114 -150 -114q-112 0 -112 128q0 57 50 161l69 -36q-29 -75 -29 -89q0 -55 38 -55q55 0 72 57q10 33 7 104q27 15 89 47q0 -156 72 -156q38 0 35 47q-1 27 -15 49q-7 11 -26 40l71 52q29 -38 50 -96
q18 -48 18 -72z" />
    <glyph glyph-name="uniE826" unicode="&#xe826;" 
d="M403 -72l-439 -109l-23 90l440 112z" />
    <glyph glyph-name="uniE827" unicode="&#xe827;" horiz-adv-x="1" 
d="M408 67l-439 -109l-25 89l442 112zM412 -98l-438 -109l-24 90l440 112z" />
    <glyph glyph-name="uniE828" unicode="&#xe828;" horiz-adv-x="7" 
d="M512 1412q0 -53 -29 -90q-30 -39 -82 -39q-84 0 -128 62q-48 -114 -150 -114q-112 0 -112 128q0 57 50 161l69 -36q-29 -75 -29 -89q0 -55 38 -55q55 0 72 57q10 33 7 104q27 15 89 47q0 -156 72 -156q38 0 35 47q-1 27 -15 49q-7 11 -26 40l71 52q29 -38 50 -96
q18 -48 18 -72zM464 1649l-439 -109l-25 90l442 112z" />
    <glyph glyph-name="uniE829" unicode="&#xe829;" 
d="M508 1448q0 -55 -29 -91q-32 -40 -84 -40q-85 0 -131 64q-49 -117 -153 -117q-114 0 -114 130q0 58 50 165l72 -36q-30 -78 -30 -92q0 -56 38 -56q58 0 75 59q9 31 7 105q27 15 90 48q0 -159 73 -159q40 0 37 48q-2 29 -42 91l72 53q31 -41 52 -98q17 -48 17 -74z
M415 1853q0 49 -72 49q-26 0 -47 -16q-23 -17 -23 -42q0 -27 23 -45t49 -16q70 5 70 70zM210 1761q-26 40 -26 85q0 63 55 110q49 41 98 41q63 0 113 -40q53 -43 53 -104q0 -129 -155 -165l-319 -75l-22 87q77 21 203 61z" />
    <glyph glyph-name="uniE82A" unicode="&#xe82a;" 
d="M516 1448q0 -55 -29 -91q-32 -40 -84 -40q-86 0 -131 64q-49 -117 -153 -117q-114 0 -114 130q0 58 50 165l72 -36q-30 -78 -30 -92q0 -56 38 -56q56 0 74 59q10 33 7 105q28 15 91 48q0 -159 73 -159q39 0 36 48q-1 26 -41 91l72 53q29 -39 51 -98q18 -49 18 -74z
M489 1896l-448 -111l-25 92l451 114zM495 1727l-448 -111l-25 92l450 114z" />
    <glyph glyph-name="uniE82B" unicode="&#xe82b;" horiz-adv-x="1" 
d="M498 1422q0 -53 -29 -90q-30 -39 -82 -39q-84 0 -128 62q-48 -114 -150 -114q-112 0 -112 128q0 57 50 161l69 -36q-29 -75 -29 -89q0 -55 38 -55q55 0 72 57q10 33 7 104q27 15 89 47q0 -156 72 -156q38 0 35 47q-1 27 -15 49q-7 11 -26 40l71 52q29 -38 50 -96
q18 -48 18 -72zM513 1875q0 -125 -152 -161l-322 -76l-30 82l30 14q49 22 49 67q0 27 -20 27q-17 0 -45 -21l-36 52q43 58 93 57q82 -2 82 -83q0 -45 -25 -84l87 33q-24 41 -24 90q0 62 54 106q48 39 95 39q62 0 111 -40q53 -42 53 -102zM425 1875q0 49 -70 49
q-24 0 -45 -15.5t-21 -39.5q0 -25 21 -44.5t47 -17.5q68 5 68 68z" />
    <glyph glyph-name="uniE82C" unicode="&#xe82c;" 
d="M491 1373l-448 -111l-24 92l450 115zM508 1638q0 -54 -29 -91q-32 -40 -84 -40q-85 0 -131 64q-49 -116 -153 -116q-114 0 -114 130q0 57 50 164l72 -36q-30 -77 -30 -92q0 -55 38 -55q58 0 75 59q9 31 7 104q27 16 90 48q0 -159 73 -159q40 0 37 48q-2 30 -42 91l72 54
q69 -93 69 -173z" />
    <glyph glyph-name="uniE82D" unicode="&#xe82d;" 
d="M475 1557l-448 -111l-24 92l450 115zM492 1822q0 -54 -29 -91q-32 -40 -84 -40q-85 0 -131 64q-49 -116 -153 -116q-114 0 -114 130q0 57 50 164l72 -36q-30 -77 -30 -92q0 -55 38 -55q58 0 75 59q9 31 7 104q27 16 90 48q0 -159 73 -159q40 0 37 48q-2 30 -42 91l72 54
q69 -93 69 -173zM491 1373l-448 -111l-24 92l450 115z" />
    <glyph glyph-name="uni0621" unicode="&#x621;" horiz-adv-x="876" 
d="M69 193h233q-92 80 -92 204q0 173 119 280q103 93 238 93q59 0 113 -26q20 -11 40 -25q15 -11 31 -25l-47 -129q-32 25 -76 25q-57 0 -100 -54q-47 -60 -47 -157q0 -93 48 -153q44 -54 99 -54q49 0 84 2l72 -174h-654z" />
    <glyph glyph-name="periodcentered" unicode="&#xb7;" horiz-adv-x="405" 
d="M326 768q0 -50 -35.5 -85t-85.5 -35q-49 0 -84.5 35.5t-35.5 84.5t34.5 85t83.5 36q51 0 87 -35t36 -86z" />
    <glyph glyph-name="periodcentered" unicode="&#x2219;" horiz-adv-x="405" 
d="M326 768q0 -50 -35.5 -85t-85.5 -35q-49 0 -84.5 35.5t-35.5 84.5t34.5 85t83.5 36q51 0 87 -35t36 -86z" />
    <glyph glyph-name="periodcentered" unicode="&#x2d9;" horiz-adv-x="405" 
d="M326 768q0 -50 -35.5 -85t-85.5 -35q-49 0 -84.5 35.5t-35.5 84.5t34.5 85t83.5 36q51 0 87 -35t36 -86z" />
    <glyph glyph-name="uniFD3F" unicode="&#xfd3f;" horiz-adv-x="1135" 
d="M1079 453q0 -48 -104 -109q-11 -156 -49 -156q-153 144 -228 144q8 -77 79 -145.5t71 -77.5q0 -16 -61 -36q-69 -21 -154 -24q-72 -217 -195 -388q-95 -133 -204 -219q-87 -69 -123 -69q-21 0 -21 21q0 10 73 92q90 102 148 208q88 164 119 365q-100 17 -100 45
q141 143 141 222q-73 0 -215 -148q-19 0 -37.5 52.5t-21.5 111.5q-107 56 -107 100q0 38 100 97q10 159 56 159l68 -65q69 -68 153 -76q0 72 -74 144t-74 83q0 23 109 45q-32 164 -130.5 337t-217.5 276q-21 18 -21 33q0 16 25 16q76 0 229 -150q201 -197 314 -499
q209 -3 209 -56q-138 -144 -138 -223q62 0 134 74t81 74q38 0 56 -164q110 -54 110 -94zM713 446q0 52 -38 88.5t-91 36.5t-91 -36.5t-38 -88.5q0 -53 38 -91t91 -38t91 38t38 91z" />
  </font>
</defs>
</svg>
